<svg width="12" height="20" viewBox="0 0 12 20" fill="none" xmlns="http://www.w3.org/2000/svg">
<path d="M7.95483 8.32442C8.88022 7.39903 10.3806 7.39903 11.306 8.32442C12.2313 9.24981 12.2313 10.7502 11.306 11.6756L4.04517 18.9363C3.11978 19.8617 1.61943 19.8617 0.694042 18.9363C-0.231347 18.0109 -0.231347 16.5106 0.694042 15.5852L7.95483 8.32442Z" fill="white"/>
<path d="M11.306 8.32442C12.2313 9.24981 12.2313 10.7502 11.306 11.6756C10.3806 12.6009 8.88024 12.6009 7.95485 11.6756L0.694069 4.41477C-0.23132 3.48938 -0.23132 1.98903 0.69407 1.06364C1.61946 0.138251 3.11981 0.138251 4.0452 1.06364L11.306 8.32442Z" fill="white"/>
</svg>
