<?xml version="1.0" encoding="UTF-8"?>
<svg id="Layer_1" xmlns="http://www.w3.org/2000/svg" version="1.1" viewBox="0 0 12 20">
  <!-- Generator: Adobe Illustrator 29.4.0, SVG Export Plug-In . SVG Version: 2.1.0 Build 152)  -->
  <defs>
    <style>
      .st0 {
        fill: #231f20;
      }
    </style>
  </defs>
  <path class="st0" d="M7.955,8.324c.925-.925,2.426-.925,3.351,0,.925.925.925,2.426,0,3.351l-7.261,7.261c-.925.925-2.426.925-3.351,0-.925-.925-.925-2.426,0-3.351l7.261-7.261Z"/>
  <path class="st0" d="M11.306,8.324c.925.925.925,2.426,0,3.351-.925.925-2.426.925-3.351,0L.694,4.415c-.925-.925-.925-2.426,0-3.351C1.619.138,3.12.138,4.045,1.064l7.261,7.261Z"/>
</svg>