<svg width="30" height="30" viewBox="0 0 30 30" fill="none" xmlns="http://www.w3.org/2000/svg">
<path d="M9.7825 0C11.7007 0 13.4899 0.552096 15 1.50605C16.5101 0.552096 18.2993 0 20.2175 0C25.6202 0 30 4.37983 30 9.78261C30 11.7008 29.4479 13.49 28.4941 15C29.4479 16.51 30 18.2992 30 20.2174C30 25.6202 25.6202 30 20.2175 30C18.2993 30 16.5101 29.4479 15 28.494C13.4899 29.4479 11.7007 30 9.7825 30C4.37978 30 0 25.6202 0 20.2174C0 18.2992 0.552049 16.51 1.50593 15C0.552049 13.49 0 11.7008 0 9.78261C0 4.37983 4.37978 0 9.7825 0Z" fill="#E6F2FF"/>
<g clip-path="url(#clip0_1464_1049)">
<path d="M14.7202 12.7427C14.5257 13.7539 13.559 14.488 12.4207 14.488C11.2823 14.488 10.3149 13.7545 10.1205 12.7427C10.0717 12.4882 10.2408 12.243 10.4987 12.1949C10.7565 12.1461 11.0048 12.3131 11.0536 12.5682C11.1625 13.1373 11.7378 13.55 12.42 13.55C13.1023 13.55 13.6769 13.1373 13.7864 12.5682C13.8352 12.3131 14.0823 12.1461 14.3414 12.1949C14.5998 12.2424 14.769 12.4882 14.7202 12.7427ZM25.4445 16.0132V21.5838C25.4445 21.8427 25.2316 22.0528 24.9693 22.0528H19.9053C19.8502 22.2097 19.7729 22.3605 19.6607 22.4918C19.3852 22.8151 18.9835 23.0002 18.5566 23.0002H6.43042C6.00345 23.0002 5.60056 22.8145 5.32562 22.4911C5.06146 22.1804 4.94997 21.7758 5.02092 21.3824C5.43458 19.0674 6.95115 17.0757 9.05621 16.017C7.92734 15.0458 7.27296 13.6526 7.27296 12.153C7.27296 10.6891 7.90707 9.28893 9.01314 8.31152C10.1179 7.33536 11.6041 6.86886 13.0902 7.0327C15.3803 7.28408 17.2693 9.09382 17.6437 11.3194H20.6889C20.699 11.3194 20.7085 11.3244 20.7193 11.325C20.7611 11.3275 20.8017 11.3357 20.8416 11.3488C20.8568 11.3538 20.8713 11.3576 20.8865 11.3644C20.9372 11.387 20.9847 11.4157 21.0259 11.4564L25.3064 15.6812C25.3469 15.7212 25.376 15.7687 25.3995 15.8181C25.4064 15.8325 25.4102 15.8475 25.4153 15.8625C25.4286 15.9019 25.4369 15.9419 25.4394 15.9832C25.4388 15.9938 25.4445 16.0026 25.4445 16.0132ZM21.164 15.5442H23.8221L22.4931 14.2323L21.164 12.9203V15.5442ZM19.0304 21.545C18.625 19.2813 17.0134 17.3702 14.8247 16.5585C14.6556 16.4954 14.5365 16.3434 14.5194 16.1658C14.5016 15.9882 14.5872 15.8156 14.7405 15.7218C16.1088 14.8795 16.8785 13.378 16.7493 11.8028C16.5871 9.83235 14.9692 8.18208 12.9851 7.96446C12.8185 7.94632 12.6525 7.93694 12.4878 7.93694C11.4343 7.93694 10.4404 8.30965 9.64725 9.01003C8.74264 9.80922 8.22318 10.9548 8.22318 12.1524C8.22318 13.6082 8.97956 14.9426 10.2459 15.7218C10.3998 15.8162 10.4854 15.9888 10.4676 16.1664C10.4499 16.344 10.3314 16.496 10.1623 16.5592C7.97296 17.3709 6.362 19.2819 5.95721 21.5456C5.92743 21.7101 6.00535 21.8314 6.05413 21.8889C6.14789 21.9996 6.28535 22.0628 6.43042 22.0628H18.5566C18.7016 22.0628 18.8385 21.999 18.9329 21.8896C18.9816 21.8308 19.0596 21.7095 19.0304 21.545ZM24.4942 21.1148V16.4822H20.6889C20.4266 16.4822 20.2138 16.2721 20.2138 16.0132V12.2574H17.7083C17.6767 13.7063 17.0331 15.0652 15.9295 16.0164C17.9522 17.0338 19.4207 18.9154 19.9008 21.1148H24.4942Z" fill="#007BFF" stroke="#007BFF" stroke-width="0.15"/>
</g>
<defs>
<clipPath id="clip0_1464_1049">
<rect width="20.4444" height="16" fill="white" transform="translate(5 7)"/>
</clipPath>
</defs>
</svg>
