<svg width="30" height="30" viewBox="0 0 30 30" fill="none" xmlns="http://www.w3.org/2000/svg">
<path d="M9.7825 0C11.7007 0 13.4899 0.552096 15 1.50605C16.5101 0.552096 18.2993 0 20.2175 0C25.6202 0 30 4.37983 30 9.78261C30 11.7008 29.4479 13.49 28.4941 15C29.4479 16.51 30 18.2992 30 20.2174C30 25.6202 25.6202 30 20.2175 30C18.2993 30 16.5101 29.4479 15 28.494C13.4899 29.4479 11.7007 30 9.7825 30C4.37978 30 0 25.6202 0 20.2174C0 18.2992 0.552049 16.51 1.50593 15C0.552049 13.49 0 11.7008 0 9.78261C0 4.37983 4.37978 0 9.7825 0Z" fill="white"/>
<g clip-path="url(#clip0_1464_1120)">
<path d="M8.32672 10.4449C8.28554 10.229 8.42768 10.0204 8.64354 9.97926C8.85808 9.93675 9.06863 10.0802 9.10915 10.2968C9.19351 10.7418 9.63852 11.0646 10.1666 11.0646C10.6946 11.0646 11.1396 10.7418 11.224 10.2968C11.2652 10.0809 11.4764 9.93941 11.6896 9.97926C11.9061 10.0204 12.0483 10.2283 12.0071 10.4449C11.8523 11.2658 11.0785 11.8616 10.1672 11.8616C9.25594 11.8616 8.48214 11.2658 8.32672 10.4449ZM19.9822 11.8616C20.8928 11.8616 21.6673 11.2658 21.8227 10.4455C21.8639 10.229 21.7218 10.0204 21.5046 9.97993C21.2927 9.93941 21.0801 10.0809 21.039 10.2974C20.9546 10.7424 20.5103 11.0652 19.9816 11.0652C19.4528 11.0652 19.0085 10.7424 18.9241 10.2974C18.883 10.0815 18.6711 9.93941 18.4585 9.97993C18.242 10.0211 18.0999 10.229 18.1404 10.4455C18.2971 11.2658 19.0716 11.8616 19.9822 11.8616ZM23.7742 11.8915C23.7742 11.8942 23.7755 11.8962 23.7755 11.8988V19.6162C23.7755 20.5687 23.001 21.3432 22.0486 21.3432H16.5808L17.0458 23.2036H18.7269C18.9467 23.2036 19.1254 23.3823 19.1254 23.6021C19.1254 23.822 18.9467 24.0007 18.7269 24.0007H16.7402C16.7382 24.0007 16.7369 24.0013 16.7349 24.0013C16.7336 24.0013 16.7323 24.0007 16.7309 24.0007H13.4179C13.4165 24.0007 13.4152 24.0013 13.4139 24.0013C13.4119 24.0013 13.4106 24.0007 13.4086 24.0007H11.4219C11.2014 24.0007 11.0234 23.822 11.0234 23.6021C11.0234 23.3823 11.2021 23.2036 11.4219 23.2036H13.103L13.568 21.3432H8.10089C7.14841 21.3432 6.37395 20.5687 6.37395 19.6162V11.8875C6.13085 11.3568 6 10.773 6 10.1672C6 7.86908 7.86908 6 10.1672 6C11.3382 6 12.3956 6.48686 13.1535 7.26664C13.1621 7.26664 13.1694 7.26199 13.1781 7.26199H17.0013C17.7585 6.48487 18.8145 6 19.9829 6C22.2804 6 24.1494 7.86908 24.1494 10.1672C24.1494 10.7743 24.0179 11.3595 23.7742 11.8915ZM16.612 10.1672C16.612 11.3309 17.2092 12.3976 18.2088 13.0207C18.337 13.101 18.4094 13.2472 18.3941 13.3979C18.3795 13.5494 18.2799 13.6782 18.1377 13.7314C17.352 14.0263 16.6386 14.5131 16.0747 15.1395C15.8947 15.3441 15.5666 15.7359 15.4696 15.902C15.4643 15.9113 15.4537 15.9153 15.447 15.9239C15.457 15.9458 15.4663 15.9684 15.4762 15.9903C16.3849 16.0368 17.781 15.8283 17.7956 15.8256C19.0178 15.5081 20.0141 15.0518 20.4213 14.6134C20.5707 14.4514 20.8231 14.4434 20.9845 14.5922C21.1459 14.7423 21.1552 14.994 21.0051 15.1554C20.4837 15.7173 19.4004 16.2328 17.9544 16.6047C17.8999 16.614 17.4629 16.6798 16.9182 16.7309C17.0497 16.8339 17.168 16.9435 17.2583 17.0663C17.5678 17.4921 17.528 17.8993 17.4961 18.0547C17.4875 18.1649 17.4403 18.3715 17.2703 18.5953C17.5917 18.5781 17.8534 18.5455 17.9072 18.5389C19.8726 18.2858 21.9722 17.1354 22.7958 15.8608C22.8018 15.8522 22.9286 15.6675 22.9658 15.5818C22.9692 15.5745 22.9751 15.5699 22.9791 15.5632V14.3278C22.9678 14.3152 22.9539 14.3072 22.9439 14.2926C22.9539 14.3066 22.8768 14.2574 22.8263 14.2308C22.4903 14.0196 22.1641 13.8576 21.8261 13.73C21.6839 13.6769 21.5849 13.5474 21.5697 13.3966C21.5551 13.2458 21.6268 13.099 21.755 13.0193C22.7546 12.397 23.3517 11.3303 23.3517 10.1659C23.3517 8.30745 21.84 6.79572 19.9816 6.79572C18.1231 6.79572 16.612 8.30878 16.612 10.1672ZM6.79705 10.1672C6.79705 11.3309 7.39351 12.3976 8.3938 13.0207C8.52266 13.101 8.59439 13.2472 8.57978 13.3979C8.56517 13.5494 8.46554 13.6782 8.3234 13.7314C7.91557 13.8848 7.53033 14.0927 7.171 14.3424V15.7599C7.17764 15.7692 7.18827 15.7745 7.19424 15.7844C7.28258 15.9279 7.36827 16.084 7.36827 16.084C8.11018 17.2297 10.1639 18.2725 12.2382 18.5389C15.1421 18.9102 16.165 18.509 16.5164 18.236C16.6871 18.1032 16.7017 17.9962 16.7017 17.9916C16.6997 17.9464 16.7057 17.9278 16.7183 17.8846C16.7196 17.8787 16.7522 17.7126 16.5981 17.516C16.3908 17.251 15.7432 16.8007 13.7393 16.7668C11.1237 16.7243 10.3293 16.092 9.74081 15.4483C9.59203 15.2863 9.60332 15.0339 9.76605 14.8851C9.92745 14.7376 10.1799 14.7469 10.3293 14.9103C10.7006 15.3155 11.2605 15.9286 13.7526 15.9697C14.0608 15.9751 14.3444 15.993 14.6154 16.0176C14.0648 14.9203 13.2259 14.1863 12.0111 13.73C11.8689 13.6769 11.7693 13.5474 11.7547 13.3966C11.7401 13.2458 11.8118 13.099 11.9407 13.0193C12.9403 12.3963 13.5374 11.3303 13.5374 10.1659C13.5374 8.30745 12.0257 6.79572 10.1672 6.79572C8.30878 6.79572 6.79705 8.30878 6.79705 10.1672ZM15.7599 21.3425H14.3896L13.9246 23.203H16.2248L15.7599 21.3425ZM22.9791 19.6162V16.9063C21.8626 18.1085 19.9085 19.0869 18.0128 19.33C17.884 19.3472 17.4151 19.4037 16.9089 19.4037C16.6213 19.4037 16.3218 19.3858 16.0647 19.3313C16.0475 19.3273 16.0342 19.3167 16.0176 19.3107C15.5513 19.4276 14.9814 19.4867 14.3092 19.4867C13.6749 19.4867 12.9503 19.4349 12.1359 19.33C10.1566 19.0756 8.24435 18.1889 7.17033 17.0843V19.6162C7.17033 20.1283 7.58745 20.5461 8.10022 20.5461H22.0486C22.5613 20.5461 22.9791 20.1283 22.9791 19.6162Z" fill="#1A2063"/>
</g>
<defs>
<clipPath id="clip0_1464_1120">
<rect width="18.1494" height="18" fill="white" transform="translate(6 6)"/>
</clipPath>
</defs>
</svg>
