<svg width="30" height="31" viewBox="0 0 30 31" fill="none" xmlns="http://www.w3.org/2000/svg">
<path d="M9.7825 0.5C11.7007 0.5 13.4899 1.0521 15 2.00605C16.5101 1.0521 18.2993 0.5 20.2175 0.5C25.6202 0.5 30 4.87983 30 10.2826C30 12.2008 29.4479 13.99 28.4941 15.5C29.4479 17.01 30 18.7992 30 20.7174C30 26.1202 25.6202 30.5 20.2175 30.5C18.2993 30.5 16.5101 29.9479 15 28.994C13.4899 29.9479 11.7007 30.5 9.7825 30.5C4.37978 30.5 0 26.1202 0 20.7174C0 18.7992 0.552049 17.01 1.50593 15.5C0.552049 13.99 0 12.2008 0 10.2826C0 4.87983 4.37978 0.5 9.7825 0.5Z" fill="#E6F2FF"/>
<g clip-path="url(#clip0_1649_945)">
<path d="M16.3255 12.0448C16.1066 12.0033 15.8877 12.1483 15.8456 12.3715C15.7515 12.8694 15.2552 13.2306 14.6659 13.2306C14.0766 13.2306 13.5803 12.8694 13.4856 12.3715C13.4435 12.1488 13.2296 12.0027 13.0058 12.0448C12.7831 12.087 12.637 12.302 12.6791 12.5247C12.8471 13.4095 13.6826 14.0513 14.6659 14.0513C15.6492 14.0513 16.4847 13.4095 16.6527 12.5242C16.6948 12.302 16.5482 12.087 16.3255 12.0448Z" fill="#007BFF" stroke="#007BFF" stroke-width="0.15"/>
<path d="M24.3404 17.7941C23.7811 16.6538 22.846 15.7329 21.7139 15.1852C22.5199 14.4832 22.997 13.4594 22.997 12.3673C22.997 11.2368 22.4936 10.1791 21.616 9.4656C20.7378 8.75154 19.5865 8.47741 18.4593 8.71269C18.2842 8.74935 18.1124 8.80407 17.9428 8.86699C17.2331 8.1398 16.2865 7.64461 15.2441 7.52861C13.9594 7.38579 12.6768 7.79399 11.7225 8.64758C11.6454 8.71707 11.5748 8.79203 11.5031 8.86645C11.334 8.80352 11.1633 8.7488 10.9888 8.71269C9.86048 8.47795 8.70977 8.75209 7.83211 9.4656C6.95389 10.1791 6.45049 11.2368 6.45049 12.3673C6.45049 13.46 6.92817 14.4832 7.73307 15.1852C6.60151 15.7324 5.66694 16.6533 5.10663 17.7936C4.94904 18.1142 4.96655 18.4852 5.15369 18.7856C5.33699 19.0795 5.6538 19.2551 6.00071 19.2551H8.4827C8.39679 19.5254 8.32401 19.8012 8.27422 20.0846C8.21349 20.4288 8.30979 20.7823 8.53796 21.0548C8.77543 21.3376 9.12289 21.4996 9.49168 21.4996H19.9657C20.3345 21.4996 20.6819 21.3371 20.9194 21.0548C21.1476 20.7823 21.2439 20.4282 21.1826 20.0841C21.1328 19.8012 21.06 19.5254 20.9741 19.2551H23.4463C23.7937 19.2551 24.1105 19.0795 24.2938 18.7856C24.481 18.4852 24.4979 18.1137 24.3404 17.7941ZM6.00126 18.4349C5.91973 18.4349 5.87432 18.39 5.85079 18.3523C5.83328 18.3244 5.79771 18.2494 5.84367 18.1564C6.42204 16.9783 7.46823 16.0738 8.71306 15.6766C8.869 15.6262 8.98062 15.4883 8.99649 15.3247C9.01236 15.1617 8.92919 15.0046 8.78583 14.9259C7.8518 14.4121 7.2718 13.4321 7.2718 12.3678C7.2718 11.4858 7.66467 10.6601 8.35028 10.1025C9.03534 9.54494 9.93654 9.33154 10.8219 9.51649C10.8667 9.52579 10.9111 9.54111 10.9559 9.5526C10.4843 10.2782 10.22 11.1285 10.22 12.0089C10.22 13.321 10.7852 14.5401 11.7603 15.3899C10.4613 16.0519 9.42985 17.1343 8.81155 18.4349H6.00126ZM20.2907 20.5278C20.2097 20.6241 20.0915 20.6794 19.9657 20.6794H9.49168C9.36638 20.6794 9.24764 20.6236 9.16666 20.5278C9.12398 20.4769 9.05723 20.3713 9.0824 20.2269C9.43204 18.2461 10.8241 16.5739 12.7145 15.8637C12.8606 15.8084 12.9635 15.6755 12.9783 15.5201C12.9936 15.3647 12.9197 15.2137 12.7868 15.131C11.6924 14.4493 11.0396 13.2821 11.0396 12.0078C11.0396 10.9599 11.4878 9.95751 12.2697 9.25822C12.9548 8.64539 13.8133 8.31927 14.7232 8.31927C14.8655 8.31927 15.0088 8.32748 15.1527 8.34335C16.867 8.53376 18.2645 9.97776 18.4041 11.7019C18.5151 13.0808 17.8503 14.394 16.669 15.1305C16.5366 15.2131 16.4621 15.3641 16.4775 15.5195C16.4928 15.6749 16.5951 15.8079 16.7412 15.8632C18.6317 16.5734 20.0237 18.2456 20.3739 20.2263C20.4001 20.3708 20.3328 20.4769 20.2907 20.5278ZM23.5967 18.3517C23.5732 18.3895 23.5283 18.4343 23.4468 18.4343H20.6464C20.0281 17.1337 18.9961 16.0503 17.6971 15.3888C18.7652 14.4558 19.3397 13.0753 19.2232 11.6362C19.1619 10.8784 18.8987 10.166 18.4932 9.55206C18.5381 9.54057 18.5819 9.52524 18.6273 9.51594C19.5137 9.331 20.4138 9.54549 21.0989 10.102C21.784 10.6595 22.1774 11.4847 22.1774 12.3673C22.1774 13.431 21.5968 14.4115 20.6628 14.9253C20.5189 15.0046 20.4363 15.1617 20.4521 15.3242C20.4675 15.4878 20.5791 15.6257 20.7356 15.676C21.9804 16.0744 23.0266 16.9778 23.6049 18.1558C23.6504 18.2488 23.6143 18.3244 23.5967 18.3517Z" fill="#007BFF" stroke="#007BFF" stroke-width="0.15"/>
</g>
<defs>
<clipPath id="clip0_1649_945">
<rect width="19.4477" height="14" fill="white" transform="translate(5 7.5)"/>
</clipPath>
</defs>
</svg>
