<svg width="30" height="30" viewBox="0 0 30 30" fill="none" xmlns="http://www.w3.org/2000/svg">
<path d="M9.7825 0C11.7007 0 13.4899 0.552096 15 1.50605C16.5101 0.552096 18.2993 0 20.2175 0C25.6202 0 30 4.37983 30 9.78261C30 11.7008 29.4479 13.49 28.4941 15C29.4479 16.51 30 18.2992 30 20.2174C30 25.6202 25.6202 30 20.2175 30C18.2993 30 16.5101 29.4479 15 28.494C13.4899 29.4479 11.7007 30 9.7825 30C4.37978 30 0 25.6202 0 20.2174C0 18.2992 0.552049 16.51 1.50593 15C0.552049 13.49 0 11.7008 0 9.78261C0 4.37983 4.37978 0 9.7825 0Z" fill="#E6F2FF"/>
<path d="M17.3672 14.5782C17.4415 14.297 17.2184 14.0157 16.921 13.9454C16.6235 13.8751 16.326 14.086 16.2517 14.3673C16.1029 15.0704 15.3593 15.5626 14.4669 15.5626C13.5745 15.5626 12.8309 15.0704 12.6821 14.3673C12.6078 14.086 12.3103 13.8751 12.0129 13.9454C11.7154 14.0157 11.4923 14.297 11.5667 14.5782C11.7898 15.7735 12.9796 16.6173 14.3925 16.6173C15.9542 16.6173 17.1441 15.7735 17.3672 14.5782Z" fill="#007BFF"/>
<path d="M7.17912 14.6484C7.25348 14.5078 7.32785 14.2969 7.17912 14.0859C7.10475 13.9453 6.88166 13.8047 6.73293 13.8047H6.28673C6.88166 9.9375 10.3768 6.98437 14.5413 6.98437C17.739 6.98437 20.6392 8.67187 22.0522 11.3437C22.2009 11.625 22.4984 11.6953 22.7958 11.5547C23.0933 11.4141 23.1677 11.1328 23.0189 10.8516C21.3829 7.89844 18.1852 6 14.5413 6C9.70754 6 5.76618 9.44531 5.17125 13.875H4.50197C4.27887 13.875 4.13014 13.9453 4.05577 14.1562C3.98141 14.2969 3.98141 14.5078 4.05577 14.7187L5.17125 16.3359C5.24562 16.4766 5.46871 16.5469 5.61745 16.5469C5.76618 16.5469 5.98927 16.4766 6.06364 16.3359L7.17912 14.6484Z" fill="#007BFF"/>
<path d="M25.0268 15.2813L23.9113 13.6641C23.6882 13.3828 23.1676 13.3828 23.0189 13.6641L21.9034 15.2813C21.8291 15.4219 21.7547 15.6328 21.9034 15.8438C21.9778 15.9844 22.2009 16.125 22.3496 16.125H22.7958C22.5727 17.7422 21.8291 19.1484 20.7136 20.2734C19.9699 19.1484 18.9288 18.1641 17.6646 17.6016C18.9288 16.5469 19.5237 14.9297 19.1519 13.3125C18.7801 11.5547 17.2928 10.1485 15.508 9.79689C14.0951 9.51564 12.6078 9.8672 11.4923 10.711C10.3768 11.5547 9.70752 12.8203 9.70752 14.2266C9.70752 15.5625 10.3024 16.7578 11.3436 17.6016C10.0793 18.1641 8.96387 19.1484 8.29458 20.2734C7.77403 19.7813 7.32783 19.1484 7.03037 18.5156C6.88164 18.2344 6.58418 18.1641 6.28672 18.3047C5.98926 18.4453 5.91489 18.7266 6.06362 19.0078C7.69966 22.1016 10.8974 24 14.5413 24C19.375 24 23.3164 20.5547 23.9113 16.125H24.5062C24.7293 16.125 24.878 16.0547 24.9524 15.8438C25.1755 15.6328 25.1755 15.4219 25.0268 15.2813ZM9.1126 21.0469C9.85625 19.7109 11.1205 18.6563 12.6821 18.2344C12.9052 18.1641 13.054 18.0234 13.054 17.8125C13.054 17.6016 12.9796 17.3906 12.7565 17.3203C11.5667 16.6875 10.823 15.5625 10.823 14.2969C10.823 13.2422 11.3436 12.2578 12.1616 11.625C13.054 10.9922 14.1694 10.711 15.2849 10.9219C16.6979 11.2031 17.8133 12.2578 18.1108 13.5938C18.4083 15.0703 17.6646 16.6172 16.2517 17.3203C16.0286 17.3906 15.9542 17.6016 15.9542 17.8125C15.9542 18.0234 16.1029 18.1641 16.326 18.2344C17.8133 18.7266 19.1519 19.7109 19.8956 21.0469C18.4826 22.1719 16.6235 22.875 14.5413 22.875C12.5334 22.875 10.5999 22.2422 9.1126 21.0469Z" fill="#007BFF"/>
</svg>
