<svg width="38" height="30" viewBox="0 0 38 30" fill="none" xmlns="http://www.w3.org/2000/svg">
<path d="M29.6413 6.5H5C3.067 6.5 1.5 8.067 1.5 10V20C1.5 21.933 3.067 23.5 5 23.5H29.6413C30.7596 23.5 31.8105 22.9657 32.4694 22.0621L36.1152 17.0621C37.0112 15.8334 37.0112 14.1667 36.1152 12.9379L32.4694 7.9379C31.8105 7.03434 30.7596 6.5 29.6413 6.5Z" stroke="#007BFF"/>
<path d="M16.4688 9.44922V20.043H15.2266V9.44922H16.4688ZM14.3125 9.64844V19.5273H13.082V14.1953H11.5586V13.1406H13.082V9.64844H14.3125ZM10.6211 12.3438C10.6211 14.1367 11.2656 15.9297 12.7773 16.7969L12.0039 17.7578C11.0254 17.1719 10.375 16.1641 10.0117 14.957C9.63672 16.2637 8.96289 17.377 7.96094 18.0039L7.16406 17.0312C8.69922 16.1055 9.36719 14.1836 9.36719 12.3438V11.6406H7.52734V10.5859H12.332V11.6406H10.6211V12.3438ZM26.8516 10.5508V11.582H18.2031V10.5508H21.8945V9.42578H23.1836V10.5508H26.8516ZM27.4023 16.2227V17.2773H25.0586V20.0547H23.7461V17.2773H21.3672V20.0547H20.0664V17.2773H17.7227V16.2227H27.4023ZM22.5391 12.0625C24.7773 12.0625 26.125 12.6953 26.125 13.8555C26.125 15.0039 24.7773 15.6484 22.5391 15.6484C20.3008 15.6484 18.9531 15.0039 18.9531 13.8555C18.9531 12.6953 20.3008 12.0625 22.5391 12.0625ZM22.5391 13.0469C21.0742 13.0469 20.3008 13.3164 20.3125 13.8555C20.3008 14.3828 21.0742 14.6641 22.5391 14.6523C24.0039 14.6641 24.7773 14.3828 24.7773 13.8555C24.7773 13.3164 24.0039 13.0469 22.5391 13.0469Z" fill="#007BFF"/>
</svg>
