<svg width="30" height="30" viewBox="0 0 30 30" fill="none" xmlns="http://www.w3.org/2000/svg">
<path d="M9.7825 0C11.7007 0 13.4899 0.552096 15 1.50605C16.5101 0.552096 18.2993 0 20.2175 0C25.6202 0 30 4.37983 30 9.78261C30 11.7008 29.4479 13.49 28.4941 15C29.4479 16.51 30 18.2992 30 20.2174C30 25.6202 25.6202 30 20.2175 30C18.2993 30 16.5101 29.4479 15 28.494C13.4899 29.4479 11.7007 30 9.7825 30C4.37978 30 0 25.6202 0 20.2174C0 18.2992 0.552049 16.51 1.50593 15C0.552049 13.49 0 11.7008 0 9.78261C0 4.37983 4.37978 0 9.7825 0Z" fill="white"/>
<path d="M17.7853 22.8477H11.363C11.2103 22.8477 11.0854 22.7204 11.0854 22.5648C11.0854 22.4092 11.2103 22.2819 11.363 22.2819H17.7853C17.938 22.2819 18.0629 22.4092 18.0629 22.5648C18.0629 22.7204 17.938 22.8477 17.7853 22.8477Z" fill="#1A2063"/>
<path d="M13.1146 22.8475C13.0924 22.8475 13.0702 22.8446 13.048 22.839C12.8982 22.8022 12.8093 22.6466 12.8454 22.4966L13.4283 20.1173C13.4643 19.9645 13.6142 19.8711 13.7641 19.9107C13.914 19.9475 14.0028 20.1031 13.9667 20.2531L13.3839 22.6325C13.3533 22.7626 13.2395 22.8475 13.1146 22.8475Z" fill="#1A2063"/>
<path d="M16.0339 22.8475C15.909 22.8475 15.7952 22.7626 15.7647 22.6325L15.1818 20.2531C15.1458 20.1003 15.2346 19.9475 15.3845 19.9107C15.5316 19.8711 15.6842 19.9645 15.7203 20.1173L16.3031 22.4966C16.3392 22.6494 16.2504 22.8022 16.1005 22.839C16.0783 22.8446 16.0561 22.8475 16.0339 22.8475Z" fill="#1A2063"/>
<path d="M20.7024 8.28259H8.44605C7.80492 8.28259 7.27759 8.81732 7.27759 9.4737V18.9941C7.27759 19.6477 7.80214 20.1852 8.44605 20.1852H20.7051C21.3463 20.1852 21.8736 19.6505 21.8736 18.9941V9.4737C21.8708 8.81732 21.3463 8.28259 20.7024 8.28259Z" fill="#1A2063"/>
<path d="M20.7023 20.4685H8.446C7.64945 20.4685 7 19.8064 7 18.9944V9.47404C7 8.66204 7.64668 8 8.446 8H20.7051C21.5016 8 22.1511 8.66204 22.1511 9.47404V18.9944C22.1483 19.8064 21.5016 20.4685 20.7023 20.4685ZM8.446 8.56585C7.95475 8.56585 7.55509 8.97326 7.55509 9.47404V18.9944C7.55509 19.4952 7.95475 19.9026 8.446 19.9026H20.7051C21.1963 19.9026 21.596 19.4952 21.596 18.9944V9.47404C21.596 8.97326 21.1963 8.56585 20.7051 8.56585H8.446Z" fill="#1A2063"/>
<path opacity="0.1" d="M19.726 9.36646H9.42358C8.88514 9.36646 8.44385 9.80499 8.44385 10.3425V18.1428C8.44385 18.6803 8.88514 19.1189 9.42358 19.1189H19.726C20.2644 19.1189 20.7057 18.6803 20.7057 18.1428V10.3425C20.7057 9.80499 20.2644 9.36646 19.726 9.36646Z" fill="#1A2063"/>
<path d="M16.7555 10.283H9.68921V17.8201H16.7555V10.283Z" fill="white"/>
<path d="M16.7557 18.103H9.68941C9.53676 18.103 9.41187 17.9756 9.41187 17.82V10.2829C9.41187 10.1273 9.53676 10 9.68941 10H16.7557C16.9083 10 17.0332 10.1273 17.0332 10.2829V17.82C17.0332 17.9785 16.9111 18.103 16.7557 18.103ZM9.96695 17.5371H16.4781V10.5658H9.96695V17.5371Z" fill="#1A2063"/>
<path d="M11.0793 16.2336C11.0211 16.2336 10.9739 16.1855 10.9739 16.1289C10.9739 16.0723 11.0211 16.0214 11.0766 16.0214H11.2153C11.2736 16.0214 11.3208 16.0695 11.3208 16.126C11.3208 16.1826 11.2736 16.2336 11.2181 16.2336H11.0793Z" fill="#1A2063"/>
<path d="M11.8147 16.2327C11.7564 16.2327 11.7092 16.1846 11.7092 16.1252C11.7092 16.0658 11.7564 16.0177 11.8147 16.0177H12.1117C12.17 16.0177 12.2171 16.0658 12.2171 16.1252C12.2171 16.1846 12.17 16.2327 12.1117 16.2327H11.8147ZM12.7084 16.2327C12.6501 16.2327 12.6029 16.1846 12.6029 16.1252C12.6029 16.0658 12.6501 16.0177 12.7084 16.0177H13.0054C13.0636 16.0177 13.1108 16.0658 13.1108 16.1252C13.1108 16.1846 13.0636 16.2327 13.0054 16.2327H12.7084ZM13.6021 16.2299C13.5438 16.2299 13.4966 16.1818 13.4966 16.1224C13.4966 16.063 13.5438 16.0149 13.6021 16.0149H13.899C13.9573 16.0149 14.0045 16.063 14.0045 16.1224C14.0045 16.1818 13.9573 16.2299 13.899 16.2299H13.6021ZM14.4985 16.2299C14.4403 16.2299 14.3931 16.1818 14.3931 16.1224C14.3931 16.063 14.4403 16.0149 14.4985 16.0149H14.7955C14.8538 16.0149 14.901 16.063 14.901 16.1224C14.901 16.1818 14.8538 16.2299 14.7955 16.2299H14.4985Z" fill="#1A2063"/>
<path d="M15.3926 16.2298C15.3343 16.2298 15.2871 16.1817 15.2871 16.1251C15.2871 16.0685 15.3343 16.0176 15.3898 16.0176H15.5286C15.5869 16.0176 15.634 16.0657 15.634 16.1223C15.634 16.1788 15.5869 16.2298 15.5313 16.2298H15.3926Z" fill="#1A2063"/>
<path d="M14.0497 10.283H6.9834V17.8201H14.0497V10.283Z" fill="white"/>
<path d="M14.0494 18.103H6.98311C6.83046 18.103 6.70557 17.9756 6.70557 17.82V10.2829C6.70557 10.1273 6.83046 10 6.98311 10H14.0494C14.202 10 14.3269 10.1273 14.3269 10.2829V17.82C14.3269 17.9785 14.2048 18.103 14.0494 18.103ZM7.26065 17.5371H13.7718V10.5658H7.26065V17.5371Z" fill="#1A2063"/>
<path d="M8.37402 16.2336C8.31574 16.2336 8.26855 16.1855 8.26855 16.1289C8.26855 16.0723 8.31574 16.0214 8.37125 16.0214H8.51002C8.5683 16.0214 8.61548 16.0695 8.61548 16.126C8.61548 16.1826 8.5683 16.2336 8.51279 16.2336H8.37402Z" fill="#1A2063"/>
<path d="M9.10962 16.2327C9.05133 16.2327 9.00415 16.1846 9.00415 16.1252C9.00415 16.0658 9.05133 16.0177 9.10962 16.0177H9.40659C9.46487 16.0177 9.51205 16.0658 9.51205 16.1252C9.51205 16.1846 9.46487 16.2327 9.40659 16.2327H9.10962ZM10.0033 16.2327C9.94502 16.2327 9.89784 16.1846 9.89784 16.1252C9.89784 16.0658 9.94502 16.0177 10.0033 16.0177H10.3003C10.3586 16.0177 10.4057 16.0658 10.4057 16.1252C10.4057 16.1846 10.3586 16.2327 10.3003 16.2327H10.0033ZM10.897 16.2299C10.8387 16.2299 10.7915 16.1818 10.7915 16.1224C10.7915 16.063 10.8387 16.0149 10.897 16.0149H11.194C11.2523 16.0149 11.2994 16.063 11.2994 16.1224C11.2994 16.1818 11.2523 16.2299 11.194 16.2299H10.897ZM11.7935 16.2299C11.7352 16.2299 11.688 16.1818 11.688 16.1224C11.688 16.063 11.7352 16.0149 11.7935 16.0149H12.0904C12.1487 16.0149 12.1959 16.063 12.1959 16.1224C12.1959 16.1818 12.1487 16.2299 12.0904 16.2299H11.7935Z" fill="#1A2063"/>
<path d="M12.687 16.2298C12.6287 16.2298 12.5815 16.1817 12.5815 16.1251C12.5815 16.0685 12.6287 16.0176 12.6842 16.0176H12.823C12.8813 16.0176 12.9285 16.0657 12.9285 16.1223C12.9285 16.1788 12.8813 16.2298 12.8258 16.2298H12.687Z" fill="#1A2063"/>
<path d="M11.3441 10.283H4.27783V17.8201H11.3441V10.283Z" fill="white"/>
<path d="M11.3438 18.103H4.27754C4.12489 18.103 4 17.9756 4 17.82V10.2829C4 10.1273 4.12489 10 4.27754 10H11.3438C11.4964 10 11.6213 10.1273 11.6213 10.2829V17.82C11.6213 17.9785 11.4964 18.103 11.3438 18.103ZM4.55509 17.5371H11.0663V10.5658H4.55509V17.5371Z" fill="#1A2063"/>
<path d="M7.24198 14.0344C7.12819 14.0344 7.0255 13.9637 6.98387 13.8562L6.35384 12.2294C6.29833 12.0851 6.36772 11.921 6.50927 11.8616C6.65082 11.805 6.81179 11.8757 6.87007 12.02L7.23643 12.9707L7.61667 11.9606C7.6583 11.8503 7.76099 11.7795 7.87478 11.7795H7.87756C7.99412 11.7795 8.09682 11.8531 8.13567 11.9663L8.49648 12.9735L8.88504 12.0172C8.94332 11.8729 9.10707 11.805 9.24862 11.8644C9.39017 11.9238 9.45678 12.0908 9.39849 12.235L8.73794 13.8619C8.69353 13.9694 8.59362 14.0288 8.47705 14.0373C8.36326 14.0344 8.26057 13.9609 8.22171 13.8505L7.86923 12.8688L7.49732 13.8534C7.46124 13.9609 7.35855 14.0344 7.24198 14.0344Z" fill="#1A2063"/>
<path d="M9.26765 13.1263H6.41451C6.26186 13.1263 6.13696 12.999 6.13696 12.8433C6.13696 12.6877 6.26186 12.5604 6.41451 12.5604H9.26765C9.4203 12.5604 9.54519 12.6877 9.54519 12.8433C9.54519 12.999 9.4203 13.1263 9.26765 13.1263Z" fill="#1A2063"/>
<path d="M5.66797 16.2336C5.60968 16.2336 5.5625 16.1855 5.5625 16.1289C5.5625 16.0723 5.60968 16.0214 5.66519 16.0214H5.80396C5.86225 16.0214 5.90943 16.0695 5.90943 16.126C5.90943 16.1826 5.86225 16.2336 5.80674 16.2336H5.66797Z" fill="#1A2063"/>
<path d="M6.40356 16.2327C6.34528 16.2327 6.2981 16.1846 6.2981 16.1252C6.2981 16.0658 6.34528 16.0177 6.40356 16.0177H6.70053C6.75882 16.0177 6.806 16.0658 6.806 16.1252C6.806 16.1846 6.75882 16.2327 6.70053 16.2327H6.40356ZM7.29725 16.2327C7.23897 16.2327 7.19178 16.1846 7.19178 16.1252C7.19178 16.0658 7.23897 16.0177 7.29725 16.0177H7.59422C7.65251 16.0177 7.69969 16.0658 7.69969 16.1252C7.69969 16.1846 7.65251 16.2327 7.59422 16.2327H7.29725ZM8.19094 16.2299C8.13266 16.2299 8.08547 16.1818 8.08547 16.1224C8.08547 16.063 8.13266 16.0149 8.19094 16.0149H8.48791C8.5462 16.0149 8.59338 16.063 8.59338 16.1224C8.59338 16.1818 8.5462 16.2299 8.48791 16.2299H8.19094ZM9.08741 16.2299C9.02912 16.2299 8.98194 16.1818 8.98194 16.1224C8.98194 16.063 9.02912 16.0149 9.08741 16.0149H9.38438C9.44266 16.0149 9.48984 16.063 9.48984 16.1224C9.48984 16.1818 9.44266 16.2299 9.38438 16.2299H9.08741Z" fill="#1A2063"/>
<path d="M9.9812 16.2298C9.92292 16.2298 9.87573 16.1817 9.87573 16.1251C9.87573 16.0685 9.92291 16.0176 9.97842 16.0176H10.1172C10.1755 16.0176 10.2227 16.0657 10.2227 16.1223C10.2227 16.1788 10.1755 16.2298 10.12 16.2298H9.9812Z" fill="#1A2063"/>
<path d="M21.4325 16.2958L18.6266 16.9918C18.4212 17.0427 18.2769 17.2295 18.2769 17.4445V21.2696C18.2769 21.4762 18.4073 21.6572 18.6016 21.7166L21.4075 22.5852C21.4936 22.6107 21.5879 22.6107 21.674 22.5852L24.4799 21.7166C24.6715 21.6572 24.8047 21.4762 24.8047 21.2696V17.4445C24.8047 17.2295 24.6603 17.0427 24.455 16.9918L21.649 16.2958C21.5768 16.2788 21.5019 16.2788 21.4325 16.2958Z" fill="white"/>
<path d="M21.5415 22.8906C21.4693 22.8906 21.3971 22.8793 21.3277 22.8595L18.5218 21.9909C18.2109 21.8947 18 21.6061 18 21.2723V17.4443C18 17.0963 18.2304 16.7993 18.5606 16.7172L21.3666 16.0212C21.4804 15.9929 21.5997 15.9929 21.7135 16.0212L24.5195 16.7172C24.8498 16.7993 25.0801 17.0992 25.0801 17.4443V21.2695C25.0801 21.6005 24.872 21.8891 24.5583 21.9881L21.7524 22.8567C21.6858 22.8793 21.6136 22.8906 21.5415 22.8906ZM21.497 16.5729L18.6939 17.2689C18.6134 17.2887 18.5551 17.3623 18.5551 17.4472V21.2723C18.5551 21.3543 18.605 21.4251 18.6828 21.4477L21.4887 22.3163C21.522 22.3276 21.5581 22.3276 21.5942 22.3163L24.4001 21.4477C24.4779 21.4251 24.5278 21.3543 24.5278 21.2723V17.4443C24.5278 17.3595 24.4723 17.2859 24.389 17.2661L21.5831 16.5701C21.5553 16.5644 21.5248 16.5644 21.497 16.5729Z" fill="#1A2063"/>
<path d="M21.8189 22.6275H21.2638V18.2478L18.1997 17.351L18.3551 16.8077L21.8189 17.8206V22.6275Z" fill="#1A2063"/>
<path d="M24.7254 16.807L21.4634 17.7634L21.6168 18.3072L24.8788 17.3508L24.7254 16.807Z" fill="#1A2063"/>
<path d="M20.2366 19.2865L19.3762 19.0092C19.218 18.9583 19.0903 18.7829 19.0903 18.616C19.0903 18.449 19.218 18.3557 19.3762 18.4066L20.2366 18.6839C20.3948 18.7348 20.5225 18.9102 20.5225 19.0771C20.5225 19.2441 20.3948 19.3374 20.2366 19.2865Z" fill="#1A2063"/>
</svg>
