<svg width="30" height="30" viewBox="0 0 30 30" fill="none" xmlns="http://www.w3.org/2000/svg">
<path d="M9.7825 0C11.7007 0 13.4899 0.552096 15 1.50605C16.5101 0.552096 18.2993 0 20.2175 0C25.6202 0 30 4.37983 30 9.78261C30 11.7008 29.4479 13.49 28.4941 15C29.4479 16.51 30 18.2992 30 20.2174C30 25.6202 25.6202 30 20.2175 30C18.2993 30 16.5101 29.4479 15 28.494C13.4899 29.4479 11.7007 30 9.7825 30C4.37978 30 0 25.6202 0 20.2174C0 18.2992 0.552049 16.51 1.50593 15C0.552049 13.49 0 11.7008 0 9.78261C0 4.37983 4.37978 0 9.7825 0Z" fill="white"/>
<g clip-path="url(#clip0_1464_1132)">
<path d="M22.3062 7H10.8611C10.2189 7 9.69658 7.52235 9.69658 8.16447V13.4492C9.65932 13.4539 9.63403 13.4592 9.59278 13.4638C8.79827 13.5563 7.14538 13.7486 5.92235 15.6956C5.09059 17.0205 4.80911 18.5995 5.12984 20.1419C5.43128 21.5919 6.40744 22.7264 6.41542 22.7311C6.45468 22.7876 7.31639 24.0007 8.86748 24.0007C9.01986 24.0007 9.17955 23.9887 9.34524 23.9627C9.52956 23.9341 9.69126 23.8816 9.83765 23.8143C9.92815 23.9082 10.0546 23.9681 10.1956 23.9681H22.3062C22.9483 23.9681 23.4707 23.4457 23.4707 22.8036V8.16447C23.4707 7.52235 22.9483 7 22.3062 7ZM9.19153 22.9759C7.97249 23.1682 7.26183 22.2001 7.20128 22.1189C7.19263 22.1089 6.35354 21.1274 6.10601 19.939C5.83785 18.6501 6.07274 17.3319 6.76676 16.2266C7.73028 14.6929 8.95731 14.5431 9.69592 14.4573V16.5254C9.69592 16.5334 9.69991 16.54 9.70057 16.548C9.34657 16.908 9.05845 17.0737 9.02385 17.0943C8.95331 17.1409 8.82888 17.1875 8.77764 17.1695C8.75968 17.1635 8.71177 17.1209 8.66319 16.9972C8.56138 16.741 8.26993 16.6146 8.01508 16.717C7.7589 16.8182 7.63313 17.109 7.73494 17.3652C7.9339 17.8662 8.25663 18.0559 8.49218 18.1264C9.03716 18.2887 9.53688 17.9534 9.54021 17.9467C9.57348 17.9288 10.3673 17.4976 11.072 16.4316C11.5857 15.6537 12.0541 15.7129 12.1406 15.7675C12.4028 15.9438 12.3323 16.3012 12.2212 16.4988C11.8252 17.2015 11.4067 17.7531 11.0707 18.1963C10.9382 18.3706 10.8198 18.527 10.7207 18.668C10.3174 19.241 10.0972 20.0554 10.0659 21.0888C10.0293 22.3218 9.76778 22.8868 9.19153 22.9759ZM22.4725 22.8036C22.4725 22.8954 22.398 22.9699 22.3062 22.9699H10.6854C11.0261 22.3032 11.0527 21.4901 11.064 21.1181C11.0893 20.2963 11.253 19.6469 11.5378 19.2423C11.6309 19.1099 11.7427 18.9628 11.8672 18.7991C12.2218 18.332 12.663 17.7511 13.0922 16.9885C13.4548 16.3457 13.4362 15.4348 12.6996 14.9391C12.4301 14.7574 12.0628 14.6955 11.6922 14.7707C11.4247 14.8239 11.0653 14.9717 10.6947 15.3303V8.16447C10.6947 8.07265 10.7692 7.99812 10.8611 7.99812H22.3062C22.398 7.99812 22.4725 8.07265 22.4725 8.16447V22.8036Z" fill="#222222"/>
<path d="M20.4164 18.9814H17.2883C17.1585 18.9814 17.0527 19.0872 17.0527 19.217C17.0527 19.3468 17.1585 19.4526 17.2883 19.4526H20.4164C20.5462 19.4526 20.652 19.3468 20.652 19.217C20.652 19.0872 20.5462 18.9814 20.4164 18.9814Z" fill="#222222"/>
<path d="M20.4164 20.5465H17.2883C17.1585 20.5465 17.0527 20.6523 17.0527 20.7821C17.0527 20.9118 17.1585 21.0176 17.2883 21.0176H20.4164C20.5462 21.0176 20.652 20.9118 20.652 20.7821C20.652 20.6523 20.5462 20.5465 20.4164 20.5465Z" fill="#222222"/>
<path d="M14.9925 10.8255C15.0177 10.7929 15.035 10.757 15.047 10.7164C15.0583 10.6765 15.0637 10.6372 15.0637 10.5999C15.0637 10.562 15.0583 10.5241 15.047 10.4848C15.035 10.4469 15.0184 10.411 14.9945 10.3804C14.9705 10.3498 14.9392 10.3238 14.9 10.3052C14.8614 10.2865 14.8141 10.2772 14.7589 10.2772H12.8252C12.77 10.2772 12.7227 10.2872 12.6835 10.3052C12.6449 10.3245 12.6136 10.3491 12.5896 10.3804C12.5657 10.4116 12.5477 10.4469 12.5371 10.4855C12.5258 10.5248 12.5198 10.5627 12.5198 10.6006C12.5198 10.6379 12.5251 10.6771 12.5371 10.7171C12.5484 10.7577 12.5657 10.7936 12.5896 10.8262C12.6136 10.8595 12.6449 10.8854 12.6835 10.9054C12.7227 10.9253 12.77 10.9353 12.8252 10.9353H13.4008V13.2982H14.1833V10.9347H14.7589C14.8141 10.9347 14.8607 10.9247 14.898 10.9047C14.9352 10.8854 14.9672 10.8588 14.9925 10.8255Z" fill="#222222"/>
<path d="M16.7147 10.566C16.6801 10.4628 16.6182 10.3857 16.5284 10.3324C16.4399 10.2805 16.3474 10.2539 16.2529 10.2539C16.1498 10.2539 16.0526 10.2799 15.9608 10.3311C15.8696 10.3823 15.8044 10.4609 15.7671 10.566L14.8003 13.2975H15.6128L15.7558 12.8311H16.7227L16.8691 13.2975H17.6968L16.7147 10.566ZM15.9515 12.1956L16.2409 11.2587L16.527 12.1956H15.9515Z" fill="#222222"/>
<path d="M18.5738 13.2975L19.1301 12.4398L19.7396 13.2975H20.6166L19.6165 11.8343L20.3085 10.8075C20.3431 10.755 20.3644 10.7004 20.3704 10.6452C20.3771 10.5899 20.3717 10.5374 20.3558 10.4875C20.3385 10.4369 20.3112 10.3936 20.2739 10.3557C20.236 10.3185 20.1927 10.2918 20.1422 10.2765C20.039 10.2466 19.9445 10.2486 19.858 10.2819C19.7715 10.3165 19.693 10.387 19.6231 10.4948L19.1826 11.1988L18.7015 10.4908C18.631 10.3857 18.5492 10.3158 18.4547 10.2799C18.3608 10.2453 18.2624 10.2453 18.1599 10.2799C18.1093 10.2978 18.0654 10.3258 18.0281 10.365C17.9902 10.4036 17.9629 10.4475 17.9456 10.4968C17.9277 10.546 17.9217 10.5979 17.9263 10.6532C17.931 10.7084 17.9503 10.7596 17.9829 10.8075L18.6975 11.823L17.7161 13.2975H18.5738Z" fill="#222222"/>
</g>
<defs>
<clipPath id="clip0_1464_1132">
<rect width="18.4706" height="17" fill="white" transform="translate(5 7)"/>
</clipPath>
</defs>
</svg>
