<svg width="30" height="30" viewBox="0 0 30 30" fill="none" xmlns="http://www.w3.org/2000/svg">
<path d="M9.7825 0C11.7007 0 13.4899 0.552096 15 1.50605C16.5101 0.552096 18.2993 0 20.2175 0C25.6202 0 30 4.37982 30 9.78261C30 11.7008 29.448 13.49 28.4941 15C29.448 16.51 30 18.2992 30 20.2174C30 25.6202 25.6202 30 20.2175 30C18.2993 30 16.5101 29.4479 15 28.4939C13.4899 29.4479 11.7007 30 9.7825 30C4.37978 30 0 25.6202 0 20.2174C0 18.2992 0.552049 16.51 1.50593 15C0.552049 13.49 0 11.7008 0 9.78261C0 4.37982 4.37978 0 9.7825 0Z" fill="#E6F2FF"/>
<g clip-path="url(#clip0_1464_994)">
<path d="M17.8636 18.9814C17.8636 19.3813 17.5391 19.7058 17.1392 19.7058C16.7392 19.7058 16.4148 19.3813 16.4148 18.9814C16.4148 18.5814 16.7392 18.257 17.1392 18.257C17.5391 18.257 17.8636 18.5808 17.8636 18.9814ZM23.6 17.3751V20.6599C23.6 21.2096 23.2013 21.6659 22.6785 21.76V23.2402C22.6785 24.2103 21.8895 25 20.9187 25H8.75983C7.78904 25 7 24.2103 7 23.2402V14.7955C7 13.8254 7.78904 13.0357 8.75983 13.0357H10.5197C10.9715 12.4879 11.5128 12.0278 12.1265 11.6874C11.3733 10.9617 10.9407 9.96592 10.9407 8.89851C10.9407 6.74895 12.6897 5 14.8392 5C16.9882 5 18.7371 6.74895 18.7371 8.89851C18.7371 9.96592 18.3052 10.9617 17.5513 11.6874C18.165 12.0278 18.7064 12.4873 19.1582 13.0357H20.918C21.8888 13.0357 22.6779 13.8254 22.6779 14.7955V16.2757C23.2013 16.3698 23.6 16.8261 23.6 17.3751ZM22.6401 17.3751C22.6401 17.2868 22.5684 17.2151 22.4801 17.2151H17.1213C16.1274 17.2151 15.3192 18.024 15.3192 19.0172C15.3192 20.011 16.1281 20.8199 17.1213 20.8199H22.4801C22.5684 20.8199 22.6401 20.7482 22.6401 20.6599V17.3751ZM11.8546 13.0357H17.8246C17.422 12.6972 16.9651 12.4278 16.4705 12.2422C16.2989 12.1776 16.1799 12.022 16.162 11.8403C16.1441 11.6586 16.2305 11.4819 16.386 11.3853C17.2569 10.842 17.7778 9.91217 17.7778 8.89787C17.7778 7.27754 16.4596 5.95927 14.8399 5.95927C13.2196 5.95927 11.9013 7.27754 11.9013 8.89787C11.9013 9.91217 12.4216 10.842 13.2938 11.3853C13.4487 11.4819 13.5357 11.6586 13.5178 11.8403C13.4999 12.022 13.3802 12.1776 13.2093 12.2422C12.7134 12.4284 12.2565 12.6972 11.8546 13.0357ZM21.7186 23.2402V21.7805H17.1213C15.5982 21.7805 14.3593 20.5409 14.3593 19.0185C14.3593 17.4954 15.5989 16.2559 17.1213 16.2559H21.7186V14.7962C21.7186 14.3553 21.3596 13.9963 20.9187 13.9963H18.9483C18.9445 13.9963 18.9413 13.9975 18.9374 13.9975H10.7417C10.7379 13.9975 10.7347 13.9963 10.7308 13.9963H8.75983C8.31891 13.9963 7.95991 14.3553 7.95991 14.7962V23.2408C7.95991 23.6817 8.31891 24.0407 8.75983 24.0407H20.9187C21.3596 24.0401 21.7186 23.6811 21.7186 23.2402ZM16.7072 9.3503C16.7565 9.08985 16.5856 8.83899 16.3245 8.78972C16.0673 8.74172 15.8126 8.9113 15.7633 9.17176C15.6923 9.54868 15.2949 9.83282 14.8392 9.83282C14.3836 9.83282 13.9862 9.54868 13.9152 9.17176C13.8659 8.9113 13.6093 8.74172 13.3539 8.78972C13.0935 8.83899 12.922 9.09049 12.9713 9.3503C13.13 10.1861 13.9158 10.7927 14.8392 10.7927C15.7627 10.7927 16.5485 10.1861 16.7072 9.3503Z" fill="#007BFF"/>
</g>
<defs>
<clipPath id="clip0_1464_994">
<rect width="16.6" height="20" fill="white" transform="translate(7 5)"/>
</clipPath>
</defs>
</svg>
