<svg width="30" height="31" viewBox="0 0 30 31" fill="none" xmlns="http://www.w3.org/2000/svg">
<path d="M9.7825 0.5C11.7007 0.5 13.4899 1.0521 15 2.00605C16.5101 1.0521 18.2993 0.5 20.2175 0.5C25.6202 0.5 30 4.87983 30 10.2826C30 12.2008 29.4479 13.99 28.4941 15.5C29.4479 17.01 30 18.7992 30 20.7174C30 26.1202 25.6202 30.5 20.2175 30.5C18.2993 30.5 16.5101 29.9479 15 28.994C13.4899 29.9479 11.7007 30.5 9.7825 30.5C4.37978 30.5 0 26.1202 0 20.7174C0 18.7992 0.552049 17.01 1.50593 15.5C0.552049 13.99 0 12.2008 0 10.2826C0 4.87983 4.37978 0.5 9.7825 0.5Z" fill="#E6F2FF"/>
<g clip-path="url(#clip0_1649_944)">
<path d="M26.2628 8.11102L23.7993 5.64755C23.6029 5.45114 23.2845 5.45114 23.0881 5.64755L20.3283 8.4073H7.84341C6.82652 8.40663 6 9.23382 6 10.25V20.9753C6 21.9922 6.82652 22.8188 7.84341 22.8188H13.2329L12.8139 24.4946H11.1951C10.9175 24.4946 10.6923 24.7198 10.6923 24.9973C10.6923 25.2748 10.9175 25.5001 11.1951 25.5001H18.5687C18.8462 25.5001 19.0715 25.2748 19.0715 24.9973C19.0715 24.7198 18.8462 24.4946 18.5687 24.4946H16.9499L16.5309 22.8188H21.9204C22.9373 22.8188 23.7638 21.9922 23.7638 20.9753V11.3206L26.2628 8.82157C26.4592 8.62516 26.4592 8.30742 26.2628 8.11102ZM17.7422 10.9934C17.6557 11.0799 17.6041 11.1945 17.5961 11.3165L17.4432 13.7002L13.8925 16.7603L12.1221 15.1904C11.9143 15.0054 11.5959 15.0255 11.4123 15.2326C11.2279 15.4404 11.2467 15.7582 11.4545 15.9425L13.5533 17.804C13.6485 17.8878 13.7678 17.93 13.8871 17.93C14.0038 17.93 14.1211 17.8891 14.2156 17.808L18.1786 14.392L20.577 14.3136C20.7044 14.3096 20.8257 14.2573 20.9162 14.1668L21.2078 13.8752V19.8324C21.2078 20.0979 20.992 20.3144 20.7258 20.3144H9.03727C8.77182 20.3144 8.5553 20.0985 8.5553 19.8324V11.3916C8.5553 11.1262 8.77115 10.9096 9.03727 10.9096H17.8253L17.7422 10.9934ZM15.9142 24.4946H13.8496L14.2685 22.8188H15.4946L15.9142 24.4946ZM22.7583 20.9753C22.7583 21.4372 22.3822 21.8133 21.9204 21.8133H7.84341C7.38155 21.8133 7.0055 21.4372 7.0055 20.9753V10.25C7.0055 9.78818 7.38155 9.41213 7.84341 9.41213H19.3228L18.1605 10.5745H9.03727C8.58681 10.5745 8.22014 10.9412 8.22014 11.3916V19.8338C8.22014 20.2842 8.58681 20.6509 9.03727 20.6509H20.7265C21.177 20.6509 21.5436 20.2842 21.5436 19.8338V13.5414L22.7583 12.3261V20.9753ZM22.9064 10.7555L22.9051 10.7561L20.3464 13.3155L18.4708 13.3765L18.5868 11.5693L23.4434 6.71271L25.1956 8.46495L22.9064 10.7555Z" fill="#007BFF"/>
</g>
<defs>
<clipPath id="clip0_1649_944">
<rect width="20.4096" height="20" fill="white" transform="translate(6 5.5)"/>
</clipPath>
</defs>
</svg>
