<svg width="30" height="30" viewBox="0 0 30 30" fill="none" xmlns="http://www.w3.org/2000/svg">
<path d="M9.7825 0C11.7007 0 13.4899 0.552096 15 1.50605C16.5101 0.552096 18.2993 0 20.2175 0C25.6202 0 30 4.37983 30 9.78261C30 11.7008 29.4479 13.49 28.4941 15C29.4479 16.51 30 18.2992 30 20.2174C30 25.6202 25.6202 30 20.2175 30C18.2993 30 16.5101 29.4479 15 28.494C13.4899 29.4479 11.7007 30 9.7825 30C4.37978 30 0 25.6202 0 20.2174C0 18.2992 0.552049 16.51 1.50593 15C0.552049 13.49 0 11.7008 0 9.78261C0 4.37983 4.37978 0 9.7825 0Z" fill="#E6F2FF"/>
<g clip-path="url(#clip0_1464_1080)">
<path d="M10.6845 23C9.7002 23 8.77529 22.6171 8.07907 21.9209C7.38357 21.2254 7 20.3005 7 19.3162C7 18.332 7.38357 17.4071 8.07907 16.7108L11.1498 13.6401C11.8453 12.9446 12.7702 12.561 13.7545 12.561C14.7387 12.561 15.6637 12.9446 16.3599 13.6401C16.5379 13.8181 16.6964 14.0128 16.8317 14.2184C16.9967 14.4688 16.9265 14.806 16.6761 14.9703C16.4243 15.1346 16.0885 15.0651 15.9242 14.8147C15.8294 14.67 15.7179 14.5332 15.592 14.408C14.6106 13.4266 12.899 13.4266 11.917 14.408L8.84621 17.4787C8.35553 17.9701 8.08486 18.6222 8.08486 19.3162C8.08486 20.0103 8.35553 20.6624 8.84621 21.153C9.82757 22.1351 11.5392 22.1351 12.5213 21.153L14.6555 19.0195C14.8676 18.8075 15.2113 18.8075 15.4234 19.0195C15.6354 19.2316 15.6354 19.5753 15.4234 19.7874L13.2891 21.9209C12.5936 22.6171 11.668 23 10.6845 23Z" fill="#007BFF" stroke="#007BFF" stroke-width="0.15"/>
<path d="M16.2455 17.436C15.3018 17.436 14.3587 17.0771 13.6401 16.3591C13.4642 16.1833 13.3057 15.9886 13.1689 15.7823C13.0032 15.5326 13.072 15.1954 13.3224 15.0304C13.5721 14.8647 13.9086 14.9334 14.0743 15.1838C14.1713 15.33 14.2835 15.4675 14.408 15.592C15.4212 16.6052 17.0698 16.6052 18.083 15.592L21.153 12.5213C21.6444 12.0306 21.9144 11.3778 21.9144 10.6837C21.9144 9.98968 21.6437 9.33688 21.153 8.8462C20.1717 7.86411 18.4586 7.86556 17.4787 8.8462L15.3445 10.9805C15.1324 11.1925 14.7886 11.1925 14.5766 10.9805C14.3645 10.7684 14.3645 10.4246 14.5766 10.2126L16.7108 8.07833C17.4063 7.38284 18.3312 6.99927 19.3162 6.99927C20.3012 6.99927 21.2254 7.38212 21.9209 8.07833C22.6171 8.77383 23 9.69947 23 10.6837C23 11.668 22.6171 12.5929 21.9209 13.2884L18.8509 16.3591C18.1329 17.0771 17.1892 17.436 16.2455 17.436Z" fill="#007BFF" stroke="#007BFF" stroke-width="0.15"/>
</g>
<defs>
<clipPath id="clip0_1464_1080">
<rect width="16" height="16" fill="white" transform="translate(7 7)"/>
</clipPath>
</defs>
</svg>
