<?xml version="1.0" encoding="UTF-8"?>
<svg xmlns="http://www.w3.org/2000/svg" version="1.1" viewBox="0 0 8.305 9.812">
  <defs>
    <style>
      .cls-1 {
        fill: #99f8ff;
      }
    </style>
  </defs>
  <!-- Generator: Adobe Illustrator 28.6.0, SVG Export Plug-In . SVG Version: 1.2.0 Build 709)  -->
  <g>
    <g id="Layer_1">
      <path class="cls-1" d="M8.305,8.973c0-1.988-1.224-3.651-2.903-4.222.799-.425,1.349-1.255,1.349-2.223,0-1.396-1.132-2.528-2.528-2.528S1.695,1.132,1.695,2.528c0,.946.526,1.761,1.295,2.194-1.724.541-2.991,2.229-2.991,4.251,0,0,0,0,0,0h.008c0,.463.35.838.782.838h6.732c.432,0,.782-.375.782-.838,0,0,0,0,0,0,0,0,0,0,0,0Z"/>
    </g>
  </g>
</svg>