<?xml version="1.0" encoding="utf-8"?>
<!-- Generator: Adobe Illustrator 27.5.0, SVG Export Plug-In . SVG Version: 6.00 Build 0)  -->
<svg version="1.1" id="Isolation_Mode" xmlns="http://www.w3.org/2000/svg" xmlns:xlink="http://www.w3.org/1999/xlink" x="0px"
	 y="0px" viewBox="0 0 27.686 20.272" style="enable-background:new 0 0 27.686 20.272;" xml:space="preserve">
<style type="text/css">
	.st0{fill:#9FA0A0;}
	.st1{fill:#FFFFFF;}
	.st2{fill:#FDD000;}
	.st3{fill:#6BC8F2;}
</style>
<g>
	<path class="st0" d="M23.214,2.459H4.87c-0.274,0-0.496-0.222-0.496-0.496S4.595,1.467,4.87,1.467h18.345
		c0.274,0,0.496,0.222,0.496,0.496S23.489,2.459,23.214,2.459z"/>
	<path class="st0" d="M16.463,20.272h-4.843c-0.274,0-0.496-0.222-0.496-0.496s0.222-0.496,0.496-0.496h4.843
		c0.274,0,0.496,0.222,0.496,0.496S16.738,20.272,16.463,20.272z"/>
	<path class="st0" d="M14.025,20.272c-0.274,0-0.496-0.222-0.496-0.496V1.999c0-0.274,0.222-0.496,0.496-0.496
		s0.496,0.222,0.496,0.496v17.777C14.521,20.051,14.299,20.272,14.025,20.272z"/>
	<path class="st0" d="M7.262,9.733c-0.208,0-0.402-0.132-0.471-0.341L4.826,3.439L2.534,9.415C2.436,9.671,2.146,9.796,1.893,9.7
		C1.637,9.603,1.509,9.315,1.608,9.06l2.79-7.274C4.473,1.589,4.69,1.483,4.872,1.467c0.21,0.005,0.394,0.142,0.459,0.341
		l2.401,7.274c0.086,0.26-0.055,0.54-0.315,0.626C7.366,9.726,7.314,9.733,7.262,9.733z"/>
	<g>
		<circle class="st1" cx="14.063" cy="2.184" r="1.688"/>
		<path class="st0" d="M14.063,4.368c-1.204,0-2.184-0.98-2.184-2.185S12.859,0,14.063,0s2.185,0.979,2.185,2.184
			S15.267,4.368,14.063,4.368z M14.063,0.992c-0.657,0-1.191,0.534-1.191,1.191s0.534,1.192,1.191,1.192s1.192-0.535,1.192-1.192
			S14.72,0.992,14.063,0.992z"/>
	</g>
	<path class="st2" d="M8.893,8.378c0.25,0,0.462,0.224,0.438,0.486c-0.231,2.504-2.231,4.462-4.665,4.462s-4.433-1.957-4.665-4.462
		C-0.022,8.602,0.19,8.378,0.44,8.378H8.893z"/>
	<path class="st0" d="M20.424,9.733c-0.06,0-0.119-0.011-0.178-0.033c-0.256-0.098-0.384-0.385-0.285-0.641l2.79-7.274
		c0.074-0.196,0.277-0.302,0.475-0.318c0.21,0.005,0.394,0.142,0.459,0.341l2.4,7.274c0.086,0.26-0.055,0.54-0.315,0.626
		c-0.26,0.089-0.54-0.055-0.626-0.315l-1.965-5.953l-2.292,5.976C20.812,9.612,20.623,9.733,20.424,9.733z"/>
	<path class="st3" d="M27.246,8.378c0.25,0,0.462,0.224,0.438,0.486c-0.231,2.504-2.231,4.462-4.665,4.462s-4.433-1.957-4.665-4.462
		c-0.024-0.262,0.188-0.486,0.438-0.486H27.246z"/>
</g>
</svg>
