<?xml version="1.0" encoding="utf-8"?>
<!-- Generator: Adobe Illustrator 27.5.0, SVG Export Plug-In . SVG Version: 6.00 Build 0)  -->
<svg version="1.1" id="Isolation_Mode" xmlns="http://www.w3.org/2000/svg" xmlns:xlink="http://www.w3.org/1999/xlink" x="0px"
	 y="0px" viewBox="0 0 22.347 20.064" style="enable-background:new 0 0 22.347 20.064;" xml:space="preserve">
<style type="text/css">
	.st0{fill:#6BC8F2;}
	.st1{fill:#FFFFFF;}
	.st2{fill:#9FA0A0;}
</style>
<g>
	<path class="st0" d="M11.667,19.151c0,0.504-0.409,0.913-0.913,0.913h-9.84C0.409,20.064,0,19.655,0,19.151V0.914
		C0,0.409,0.409,0,0.913,0h9.84c0.505,0,0.913,0.409,0.913,0.914V19.151z"/>
	<path class="st1" d="M6.992,4.519H4.674c-0.392,0-0.709-0.317-0.709-0.708s0.317-0.708,0.709-0.708h2.318
		c0.392,0,0.709,0.317,0.709,0.708S7.384,4.519,6.992,4.519z"/>
	<g>
		<path class="st2" d="M19.338,16.655c-0.127,0-0.254-0.048-0.351-0.146c-0.194-0.193-0.194-0.508,0-0.701
			c1.526-1.527,2.367-3.553,2.367-5.706c0-2.152-0.841-4.178-2.367-5.705c-0.194-0.193-0.194-0.508,0-0.701
			c0.193-0.194,0.508-0.194,0.701,0c1.714,1.714,2.658,3.989,2.658,6.406c0,2.418-0.944,4.693-2.658,6.407
			C19.592,16.606,19.465,16.655,19.338,16.655z"/>
		<path class="st2" d="M17.187,14.502c-0.127,0-0.254-0.048-0.351-0.146c-0.194-0.193-0.194-0.508,0-0.701
			c0.95-0.951,1.474-2.212,1.474-3.554c0-1.341-0.523-2.603-1.474-3.552c-0.194-0.194-0.194-0.508,0-0.702
			c0.193-0.194,0.508-0.194,0.701,0c1.138,1.138,1.765,2.648,1.765,4.254s-0.627,3.117-1.765,4.255
			C17.44,14.454,17.313,14.502,17.187,14.502z"/>
		<path class="st2" d="M17.187,14.502c-0.127,0-0.254-0.048-0.351-0.146c-0.194-0.193-0.194-0.508,0-0.701
			c0.95-0.951,1.474-2.212,1.474-3.554c0-1.341-0.523-2.603-1.474-3.552c-0.194-0.194-0.194-0.508,0-0.702
			c0.193-0.194,0.508-0.194,0.701,0c1.138,1.138,1.765,2.648,1.765,4.254s-0.627,3.117-1.765,4.255
			C17.44,14.454,17.313,14.502,17.187,14.502z"/>
		<path class="st2" d="M15.035,12.351c-0.127,0-0.254-0.048-0.351-0.146c-0.194-0.193-0.194-0.508,0-0.701
			c0.374-0.375,0.58-0.873,0.58-1.403c0-0.53-0.206-1.028-0.58-1.402c-0.194-0.194-0.193-0.508,0-0.702
			c0.193-0.193,0.508-0.194,0.701,0c0.562,0.562,0.871,1.309,0.871,2.104c0,0.795-0.31,1.542-0.871,2.104
			C15.289,12.303,15.162,12.351,15.035,12.351z"/>
	</g>
</g>
</svg>
