<svg width="50" height="50" viewBox="0 0 50 50" fill="none" xmlns="http://www.w3.org/2000/svg">
<g clip-path="url(#clip0_1526_1360)">
<path d="M25.0028 50.0057C38.8115 50.0057 50.0057 38.8115 50.0057 25.0028C50.0057 11.1942 38.8115 0 25.0028 0C11.1942 0 0 11.1942 0 25.0028C0 38.8115 11.1942 50.0057 25.0028 50.0057Z" fill="#074AFF"/>
<path d="M19.688 35.6213H19.6369C14.1406 35.5759 13.5791 30.6809 13.165 27.1074C13.0856 26.4097 13.0062 25.7234 12.8984 25.0654C12.5751 23.9026 12.11 23.1482 11.6222 22.9894C11.0266 22.8022 10.1644 23.3638 10.017 23.4829C9.37601 24.0047 8.43444 23.914 7.9126 23.273C7.39076 22.6321 7.48152 21.6905 8.12247 21.1687C8.34368 20.9871 10.3289 19.4386 12.5354 20.142C14.0839 20.6411 15.1843 22.0535 15.8082 24.3507C15.8196 24.3961 15.8309 24.4415 15.8366 24.4869C15.9614 25.2186 16.0521 25.99 16.1429 26.7671C16.6193 30.9191 17.0731 32.6094 19.671 32.6321H19.688C22.6375 32.6321 23.3182 26.0354 23.3408 24.26C23.4429 20.5788 24.9858 14.3848 30.1304 14.3848C35.2751 14.3848 36.6874 19.2742 36.6874 21.8607C36.7044 22.2464 36.9086 23.4772 37.6857 24.0331C38.2926 24.4642 39.2456 24.4925 40.5161 24.1125C41.3045 23.8743 42.1384 24.3224 42.3766 25.1165C42.6148 25.9049 42.1667 26.7387 41.3726 26.9769C39.1548 27.6406 37.317 27.4647 35.916 26.4438C33.823 24.9179 33.7039 22.201 33.6982 21.8947C33.6982 21.4069 33.5621 17.374 30.1304 17.374C26.6988 17.374 26.3357 24.2486 26.3357 24.3167C26.2904 28.5084 24.8326 35.6156 19.6993 35.6156L19.688 35.6213Z" fill="white"/>
</g>
<defs>
<clipPath id="clip0_1526_1360">
<rect width="50" height="50" fill="white"/>
</clipPath>
</defs>
</svg>
