<svg width="45" height="45" viewBox="0 0 45 45" fill="none" xmlns="http://www.w3.org/2000/svg">
<g clip-path="url(#clip0_1526_1408)">
<path d="M26.6772 42.4865H1.69692C0.759654 42.4865 0 41.7293 0 40.795V3.58399C0 2.64977 0.759654 1.89258 1.69692 1.89258H35.6353C36.5725 1.89258 37.3322 2.64977 37.3322 3.58399V20.21C37.3322 21.1442 36.5725 21.9014 35.6353 21.9014C34.698 21.9014 33.9384 21.1442 33.9384 20.21V5.2754H3.39384V39.1036H26.6772C27.6145 39.1036 28.3742 39.8608 28.3742 40.795C28.3742 41.7293 27.6145 42.4865 26.6772 42.4865Z" fill="#00153B"/>
<path d="M22.4715 35.8457H8.60707C7.66981 35.8457 6.91016 35.0885 6.91016 34.1542V10.7124C6.91016 9.77818 7.66981 9.021 8.60707 9.021H28.724C29.6613 9.021 30.421 9.77818 30.421 10.7124V21.0373C30.421 21.9716 29.6613 22.7288 28.724 22.7288C27.7868 22.7288 27.0271 21.9716 27.0271 21.0373V12.4038H10.304V32.4628H22.4715C23.4087 32.4628 24.1684 33.22 24.1684 34.1542C24.1684 35.0885 23.4087 35.8457 22.4715 35.8457Z" fill="#00153B"/>
<path d="M27.0707 1.69141V6.22552C27.0707 8.70343 25.0553 10.7123 22.5693 10.7123H14.7641C12.2781 10.7123 10.2627 8.70343 10.2627 6.22552V1.69141H27.0707Z" fill="white"/>
<path d="M22.5699 12.4037H14.7647C11.3471 12.4037 8.56641 9.63259 8.56641 6.22608V1.69141C8.56641 0.757188 9.32606 0 10.2633 0H27.0707C28.008 0 28.7676 0.757188 28.7676 1.69141V6.22608C28.7676 9.63259 25.9875 12.4037 22.5699 12.4037ZM11.9602 3.38282V6.22608C11.9602 7.76696 13.2182 9.02086 14.7647 9.02086H22.5699C24.1158 9.02086 25.3744 7.76696 25.3744 6.22608V3.38282H11.9602Z" fill="#00153B"/>
<path d="M33.1216 44.9998C32.9694 44.9998 32.8178 44.9795 32.6702 44.9389C25.4538 42.9543 21.625 39.2913 21.289 34.053C21.2845 33.9819 21.2816 33.921 21.2771 33.8714C21.2545 33.7609 21.2432 33.6487 21.2432 33.536V22.0434C21.2432 21.5484 21.4609 21.0782 21.8388 20.7568C22.2166 20.4354 22.7161 20.2984 23.2071 20.3728C29.4495 21.3663 31.4886 17.0926 31.5723 16.9099C31.8512 16.3033 32.4841 15.9013 33.1346 15.9154C33.7998 15.9216 34.4028 16.3067 34.6726 16.9122C34.7687 17.1202 36.8163 21.3612 43.0367 20.3728C43.5265 20.2962 44.0271 20.4349 44.405 20.7568C44.7828 21.0787 45.0006 21.5484 45.0006 22.0434V33.5365C45.0006 33.6493 44.9893 33.7615 44.9666 33.872C44.9621 33.9222 44.9587 33.9831 44.9542 34.0541C44.6176 39.2924 40.7888 42.9543 33.5735 44.9395C33.4253 44.9795 33.2732 44.9998 33.1216 44.9998ZM24.637 33.3905C24.6568 33.5337 24.6658 33.6792 24.676 33.8376C24.7614 35.171 25.0194 39.1808 33.1216 41.5504C41.2232 39.1808 41.4812 35.1721 41.5672 33.8382C41.5773 33.6797 41.5869 33.5337 41.6062 33.3905V23.8983C37.5658 24.0184 34.7744 22.318 33.1216 20.5555C31.4688 22.318 28.6762 24.0003 24.637 23.8983V33.3905ZM44.9587 33.9047C44.9536 33.9284 44.948 33.9515 44.9418 33.9746C44.9474 33.9543 44.9536 33.9312 44.9587 33.9047ZM21.2833 33.9041C21.289 33.9306 21.2952 33.9537 21.3003 33.9735C21.2946 33.9509 21.289 33.9278 21.2833 33.9041Z" fill="#074AFF"/>
<path d="M32.7978 35.8455C32.4142 35.8455 32.0285 35.7164 31.7112 35.4525L28.2274 32.5535C27.5085 31.9547 27.4117 30.8886 28.0124 30.1708C28.6132 29.4531 29.6828 29.3578 30.4028 29.9566L32.5936 31.7794L36.1531 27.592C36.7589 26.8788 37.8302 26.7908 38.5446 27.3947C39.2596 27.9985 39.3479 29.0663 38.7421 29.779L34.0931 35.2468C33.7582 35.6425 33.2797 35.8455 32.7978 35.8455Z" fill="#074AFF"/>
</g>
<defs>
<clipPath id="clip0_1526_1408">
<rect width="45" height="45" fill="white"/>
</clipPath>
</defs>
</svg>
