<svg width="50" height="45" viewBox="0 0 50 45" fill="none" xmlns="http://www.w3.org/2000/svg">
<g clip-path="url(#clip0_1789_1327)">
<path d="M27.8946 31.2437H4.92064C3.0076 31.2437 1.44238 29.6742 1.44238 27.7559V5.55615C1.44238 3.63786 3.0076 2.06836 4.92064 2.06836H37.9641C39.8772 2.06836 41.4424 3.63786 41.4424 5.55615V18.2294" stroke="black" stroke-width="3" stroke-linecap="round" stroke-linejoin="round"/>
<path d="M2.13281 3.67578L21.4372 20.2254L41.0198 3.88505" stroke="black" stroke-width="3.2" stroke-linecap="round" stroke-linejoin="round"/>
<path d="M16.464 15.9492L2.56836 30.3015" stroke="black" stroke-width="3.2" stroke-linecap="round" stroke-linejoin="round"/>
<path d="M26.7207 16.1709L31.5 20.9502" stroke="black" stroke-width="3.2" stroke-linecap="round" stroke-linejoin="round"/>
<path d="M37.8784 44.0847C37.7263 44.0847 37.5747 44.0644 37.427 44.0239C30.2106 42.0393 26.3818 38.3762 26.0458 33.1379C26.0413 33.0669 26.0385 33.006 26.0339 32.9564C26.0113 32.8459 26 32.7337 26 32.6209V21.1283C26 20.6333 26.2178 20.1631 26.5956 19.8417C26.9735 19.5204 27.4729 19.3834 27.9639 19.4578C34.2063 20.4512 36.2454 16.1776 36.3291 15.9949C36.608 15.3883 37.2409 14.9863 37.8914 15.0004C38.5566 15.0066 39.1596 15.3916 39.4294 15.9972C39.5256 16.2052 41.5732 20.4461 47.7935 19.4578C48.2834 19.3811 48.784 19.5198 49.1618 19.8417C49.5396 20.1637 49.7574 20.6333 49.7574 21.1283V32.6215C49.7574 32.7342 49.7461 32.8464 49.7235 32.9569C49.719 33.0071 49.7156 33.068 49.711 33.1391C49.3745 38.3774 45.5457 42.0393 38.3304 44.0244C38.1822 44.0644 38.03 44.0847 37.8784 44.0847ZM29.3938 32.4755C29.4136 32.6187 29.4227 32.7641 29.4329 32.9226C29.5183 34.2559 29.7762 38.2657 37.8784 40.6354C45.9801 38.2657 46.238 34.2571 46.324 32.9231C46.3342 32.7647 46.3438 32.6187 46.363 32.4755V22.9833C42.3227 23.1033 39.5312 21.4029 37.8784 19.6405C36.2256 21.4029 33.4331 23.0853 29.3938 22.9833V32.4755ZM49.7156 32.9896C49.7105 33.0133 49.7048 33.0364 49.6986 33.0596C49.7042 33.0393 49.7105 33.0161 49.7156 32.9896ZM26.0402 32.9891C26.0458 33.0156 26.052 33.0387 26.0571 33.0584C26.0515 33.0359 26.0458 33.0128 26.0402 32.9891Z" fill="#074AFF"/>
<path d="M37.5546 34.9305C37.1711 34.9305 36.7853 34.8014 36.468 34.5375L32.9842 31.6384C32.2653 31.0397 32.1686 29.9735 32.7693 29.2558C33.37 28.5381 34.4396 28.4428 35.1597 29.0415L37.3504 30.8643L40.91 26.677C41.5158 25.9637 42.5871 25.8758 43.3015 26.4796C44.0164 27.0835 44.1047 28.1513 43.4989 28.8639L38.8499 34.3317C38.515 34.7275 38.0365 34.9305 37.5546 34.9305Z" fill="#074AFF"/>
</g>
<defs>
<clipPath id="clip0_1789_1327">
<rect width="50" height="45" fill="white"/>
</clipPath>
</defs>
</svg>
