<svg width="54" height="45" viewBox="0 0 54 45" fill="none" xmlns="http://www.w3.org/2000/svg">
<path opacity="0.4" d="M32.8002 16.1543C35.1757 16.1543 37.1013 14.2375 37.1013 11.873C37.1013 9.50858 35.1757 7.5918 32.8002 7.5918C30.4247 7.5918 28.499 9.50858 28.499 11.873C28.499 14.2375 30.4247 16.1543 32.8002 16.1543Z" fill="#00153B"/>
<path d="M32.5463 37.5H1.88372C0.843279 37.5 0 36.6606 0 35.625V1.875C0 0.839375 0.843279 0 1.88372 0H43.3256C44.366 0 45.2093 0.839375 45.2093 1.875V18.0212C45.2093 19.0569 44.366 19.8962 43.3256 19.8962C42.2851 19.8962 41.4419 19.0569 41.4419 18.0212V3.75H3.76744V33.75H32.5463C33.5867 33.75 34.43 34.5894 34.43 35.625C34.43 36.6606 33.5867 37.5 32.5463 37.5Z" fill="#00153B"/>
<path d="M26.9057 16.1543C29.2811 16.1543 31.2068 14.2375 31.2068 11.873C31.2068 9.50858 29.2811 7.5918 26.9057 7.5918C24.5302 7.5918 22.6045 9.50858 22.6045 11.873C22.6045 14.2375 24.5302 16.1543 26.9057 16.1543Z" fill="#00153B"/>
<path d="M42.6978 44.9998C42.5289 44.9998 42.3607 44.9773 42.1968 44.9323C35.379 43.0591 31.7591 39.581 31.4388 34.5948C31.4351 34.5398 31.4326 34.491 31.4294 34.4498C31.4068 34.3335 31.3955 34.2154 31.3955 34.0973V21.6048C31.3955 21.056 31.6373 20.5348 32.0567 20.1785C32.4761 19.8229 33.0299 19.6698 33.5756 19.7529C39.0039 20.6123 40.7934 17.1323 40.9793 16.7323C41.2913 16.0629 41.9739 15.646 42.7148 15.6348C43.4507 15.6435 44.1182 16.0666 44.4177 16.7348C44.6111 17.1479 46.3993 20.6148 51.8201 19.7529C52.3651 19.6673 52.9195 19.8216 53.339 20.1785C53.7584 20.5354 54.0002 21.056 54.0002 21.6048V34.0966C54.0002 34.2148 53.9889 34.3335 53.9663 34.4491C53.9631 34.4904 53.96 34.5398 53.9568 34.5941C53.636 39.581 50.0167 43.0585 43.1989 44.931C43.035 44.9773 42.8667 44.9998 42.6978 44.9998ZM35.163 33.941C35.1805 34.0754 35.1893 34.2104 35.1987 34.3554C35.2741 35.5285 35.5001 39.0441 42.6978 41.1748C49.8949 39.0441 50.1216 35.5285 50.1969 34.356C50.2063 34.2104 50.2151 34.0748 50.2327 33.9404V23.636C50.2239 23.636 50.2158 23.636 50.207 23.636C46.7259 23.636 44.25 22.221 42.6978 20.6773C41.1456 22.221 38.6692 23.636 35.1887 23.636C35.1799 23.636 35.1717 23.636 35.163 23.636V33.941ZM53.9587 34.4898C53.9518 34.521 53.9443 34.5523 53.9361 34.5829C53.943 34.556 53.9512 34.5254 53.9587 34.4898ZM31.437 34.4891C31.4439 34.5254 31.452 34.5554 31.4596 34.5816C31.4514 34.551 31.4439 34.5198 31.437 34.4891Z" fill="#074AFF"/>
<path d="M42.3982 35.2933C41.9725 35.2933 41.5442 35.1502 41.192 34.8577L37.9696 32.1802C37.1709 31.5165 37.0641 30.3346 37.7303 29.539C38.3972 28.7446 39.5852 28.6383 40.3839 29.3015L42.1715 30.7865L45.2627 27.1552C45.9352 26.3646 47.1245 26.2677 47.9175 26.9365C48.7112 27.6058 48.8091 28.7896 48.1366 29.5796L43.8361 34.6302C43.4638 35.0677 42.9332 35.2933 42.3982 35.2933Z" fill="#074AFF"/>
</svg>
