<svg width="48" height="45" viewBox="0 0 48 45" fill="none" xmlns="http://www.w3.org/2000/svg">
<g clip-path="url(#clip0_1789_1345)">
<path d="M19.2 38.6635C8.6128 38.6635 0 29.9916 0 19.3317C0 8.6719 8.6128 0 19.2 0C29.7872 0 38.4 8.6719 38.4 19.3317C38.4 20.2215 37.6837 20.9427 36.8 20.9427C35.9163 20.9427 35.2 20.2215 35.2 19.3317C35.2 10.4488 28.0224 3.22196 19.2 3.22196C10.3776 3.22196 3.2 10.4488 3.2 19.3317C3.2 28.2147 10.3776 35.4415 19.2 35.4415C21.7621 35.4415 24.2085 34.8503 26.472 33.6856C27.2571 33.2807 28.2224 33.5943 28.6245 34.3869C29.0272 35.1789 28.7152 36.1493 27.928 36.5542C25.2101 37.9541 22.2736 38.6635 19.2 38.6635Z" fill="#00153B"/>
<path d="M12.8003 17.1548C13.9785 17.1548 14.9337 16.1931 14.9337 15.0069C14.9337 13.8206 13.9785 12.8589 12.8003 12.8589C11.6221 12.8589 10.667 13.8206 10.667 15.0069C10.667 16.1931 11.6221 17.1548 12.8003 17.1548Z" fill="#00153B"/>
<path d="M25.6001 17.1548C26.7783 17.1548 27.7335 16.1931 27.7335 15.0069C27.7335 13.8206 26.7783 12.8589 25.6001 12.8589C24.4219 12.8589 23.4668 13.8206 23.4668 15.0069C23.4668 16.1931 24.4219 17.1548 25.6001 17.1548Z" fill="#00153B"/>
<path d="M19.2002 28.968C16.3554 28.968 13.6802 27.8527 11.669 25.8266C11.0439 25.1978 11.0439 24.1775 11.669 23.5487C12.2941 22.9193 13.3063 22.9193 13.9314 23.5487C15.3389 24.9658 17.2098 25.7461 19.2002 25.7461C21.1906 25.7461 23.0615 24.9658 24.469 23.5487C25.0941 22.9193 26.1063 22.9193 26.7314 23.5487C27.3565 24.1775 27.3565 25.1978 26.7314 25.8266C24.7202 27.8527 22.045 28.968 19.2002 28.968Z" fill="#00153B"/>
<path d="M36.7996 45.0002C36.6561 45.0002 36.5132 44.9809 36.374 44.9422C29.5708 43.0514 25.9607 39.5637 25.6428 34.5745C25.6385 34.5068 25.6359 34.4488 25.6316 34.401C25.6103 34.2958 25.5996 34.1889 25.5996 34.0815V23.1349C25.5996 22.6634 25.8049 22.2156 26.1612 21.9095C26.5175 21.6034 26.9889 21.4713 27.4513 21.5438C33.342 22.49 35.2599 18.4196 35.3388 18.2456C35.6012 17.6678 36.1665 17.2967 36.8119 17.2983C37.4391 17.3043 38.0071 17.671 38.262 18.2477C38.3527 18.4454 40.2764 22.4862 46.1484 21.5438C46.6097 21.4702 47.0817 21.6029 47.4385 21.9095C47.7943 22.2156 47.9996 22.6634 47.9996 23.1349V34.0815C47.9996 34.1889 47.9889 34.2958 47.9676 34.401C47.9628 34.4488 47.9601 34.5068 47.9564 34.5745C47.6385 39.5637 44.0284 43.0514 37.2252 44.9422C37.086 44.9809 36.9431 45.0002 36.7996 45.0002ZM28.7996 33.9424C28.8177 34.0788 28.8268 34.2179 28.8364 34.3688C28.9169 35.6388 29.1601 39.4574 36.7996 41.7143C44.4385 39.4574 44.6817 35.6393 44.7628 34.3688C44.7729 34.2179 44.7815 34.0788 44.7996 33.9424V24.9016C40.9809 25.0004 38.358 23.397 36.7996 21.7178C35.2412 23.3964 32.6055 25.001 28.7996 24.9016V33.9424ZM47.9612 34.4322C47.9564 34.4547 47.9505 34.4767 47.9452 34.4988C47.95 34.4794 47.9559 34.4574 47.9612 34.4322ZM25.638 34.4322C25.6433 34.4574 25.6492 34.4794 25.654 34.4988C25.6487 34.4767 25.6428 34.4547 25.638 34.4322Z" fill="#074AFF"/>
<path d="M36.4941 36.2804C36.1325 36.2804 35.7693 36.1575 35.4696 35.9062L32.1848 33.1449C31.5069 32.5747 31.4157 31.5592 31.9821 30.8756C32.548 30.1936 33.5565 30.1007 34.236 30.6716L36.3016 32.4071L39.6573 28.4194C40.2285 27.7412 41.2386 27.6569 41.9128 28.2315C42.5869 28.8066 42.6706 29.8236 42.0994 30.5024L37.7165 35.7102C37.3992 36.0871 36.948 36.2804 36.4941 36.2804Z" fill="#074AFF"/>
</g>
<defs>
<clipPath id="clip0_1789_1345">
<rect width="48" height="45" fill="white"/>
</clipPath>
</defs>
</svg>
