<svg width="48" height="45" viewBox="0 0 48 45" fill="none" xmlns="http://www.w3.org/2000/svg">
<g clip-path="url(#clip0_1789_1336)">
<path d="M27.1131 39.1304H1.63962C1.20348 39.1304 0.785929 38.9581 0.47823 38.6505C0.170531 38.3429 -0.001628 37.9272 1.1605e-05 37.4935L0.124075 6.09022C0.137192 2.73207 2.89556 0 6.2726 0H38.8384C39.7184 0 40.442 0.690761 40.477 1.56522C40.5119 2.43967 39.8468 3.18587 38.9696 3.25543C38.9259 3.25924 38.8762 3.26141 38.8324 3.26141C37.7743 3.26141 37.0403 3.46467 36.649 3.86576C36.2353 4.28967 36.0533 5.1 36.0927 6.34348L36.0932 20.6995C36.0932 21.6 35.3592 22.3299 34.4536 22.3299C33.548 22.3299 32.814 21.6 32.814 20.6995V6.39456C32.7856 5.52337 32.8211 4.36467 33.243 3.26087H6.2726C4.69694 3.26087 3.4093 4.53587 3.40329 6.10272L3.28578 35.8696H27.1131C28.0187 35.8696 28.7527 36.5995 28.7527 37.5C28.7527 38.4005 28.0187 39.1304 27.1131 39.1304Z" fill="#00153B"/>
<path d="M23.6902 28.8515C23.0317 28.8515 22.4305 28.4569 22.1758 27.8439L18.2735 18.4488L14.3713 27.8439C14.0986 28.4999 13.4252 28.9107 12.7191 28.8461C12.0075 28.7874 11.4167 28.2765 11.2577 27.5847L8.2632 14.5412C8.06153 13.6635 8.61407 12.789 9.49673 12.5885C10.3799 12.3901 11.2588 12.9374 11.4599 13.8151L13.3072 21.8635L16.7574 13.5559C17.011 12.9461 17.6095 12.5483 18.273 12.5483C18.9365 12.5483 19.5349 12.9461 19.7885 13.5559L23.2388 21.8635L25.0861 13.8151C25.2878 12.9374 26.1682 12.3901 27.0493 12.5885C27.9319 12.789 28.4845 13.6635 28.2828 14.5412L25.2883 27.5847C25.1293 28.2765 24.5379 28.7874 23.8269 28.8461C23.7821 28.8493 23.7362 28.8515 23.6902 28.8515Z" fill="#00153B"/>
<path d="M28.5385 21.7863H7.72261C6.817 21.7863 6.08301 21.0564 6.08301 20.1558C6.08301 19.2553 6.817 18.5254 7.72261 18.5254H28.5385C29.4441 18.5254 30.1781 19.2553 30.1781 20.1558C30.1781 21.0564 29.4441 21.7863 28.5385 21.7863Z" fill="#00153B"/>
<path d="M36.5226 44.9998C36.3756 44.9998 36.2291 44.9802 36.0865 44.9411C29.1143 43.0275 25.4148 39.4971 25.0902 34.4476C25.0858 34.3791 25.0831 34.3204 25.0787 34.2726C25.0568 34.1661 25.0459 34.0579 25.0459 33.9492V22.8704C25.0459 22.3933 25.2563 21.94 25.6214 21.6302C25.9865 21.321 26.4685 21.1878 26.9435 21.2601C32.9772 22.2172 34.9447 18.0982 35.0256 17.9221C35.2951 17.3373 35.8979 16.9824 36.5352 16.9634C37.1779 16.9694 37.7605 17.3406 38.0212 17.9237C38.1136 18.1237 40.0909 22.2112 46.1034 21.2601C46.5761 21.1867 47.0603 21.3199 47.4254 21.6302C47.7905 21.9406 48.0009 22.3933 48.0009 22.8704V33.9492C48.0009 34.0579 47.99 34.1661 47.9681 34.2726C47.9638 34.321 47.9605 34.3797 47.9561 34.4482C47.6309 39.4976 43.9314 43.0275 36.9593 44.9411C36.8161 44.9802 36.6691 44.9998 36.5226 44.9998ZM28.3246 33.8085C28.3437 33.9465 28.3524 34.0873 28.3623 34.24C28.4448 35.5248 28.694 39.39 36.5226 41.6742C44.3512 39.39 44.6004 35.5259 44.6829 34.24C44.6927 34.0873 44.702 33.9465 44.7206 33.8085V24.6585C40.8211 24.7721 38.119 23.1351 36.5226 21.4362C34.9262 23.1351 32.2317 24.7547 28.3246 24.6585V33.8085ZM47.9605 34.3041C47.9556 34.327 47.9501 34.3492 47.9441 34.3715C47.949 34.352 47.9556 34.3297 47.9605 34.3041ZM25.0847 34.3041C25.0902 34.3291 25.0962 34.3514 25.1011 34.3704C25.0951 34.3487 25.0896 34.3264 25.0847 34.3041Z" fill="#074AFF"/>
<path d="M36.2097 36.1748C35.8392 36.1748 35.4664 36.0504 35.1598 35.796L31.7937 33.0015C31.0991 32.4243 31.0056 31.3966 31.586 30.7047C32.1665 30.0129 33.2005 29.9216 33.8957 30.4982L36.0124 32.2547L39.4518 28.2189C40.0371 27.5314 41.0712 27.4466 41.7625 28.0286C42.4533 28.6107 42.5386 29.6401 41.9533 30.327L37.4618 35.5977C37.1372 35.9792 36.6748 36.1748 36.2097 36.1748Z" fill="#074AFF"/>
</g>
<defs>
<clipPath id="clip0_1789_1336">
<rect width="48" height="45" fill="white"/>
</clipPath>
</defs>
</svg>
