<svg width="45" height="44" viewBox="0 0 45 44" fill="none" xmlns="http://www.w3.org/2000/svg">
<g clip-path="url(#clip0_1526_1374)">
<path d="M18.2766 24.3318C11.5377 24.3318 6.05469 18.8744 6.05469 12.1659C6.05469 5.45742 11.5377 0 18.2766 0C25.0154 0 30.4985 5.45742 30.4985 12.1659C30.4985 18.8744 25.0154 24.3318 18.2766 24.3318ZM18.2766 3.04147C13.2223 3.04147 9.11016 7.13479 9.11016 12.1659C9.11016 17.197 13.2223 21.2903 18.2766 21.2903C23.3308 21.2903 27.443 17.197 27.443 12.1659C27.443 7.13479 23.3308 3.04147 18.2766 3.04147Z" fill="#00153B"/>
<path d="M1.52933 39.6808C1.48808 39.6808 1.44582 39.6793 1.40355 39.6757C0.562783 39.6073 -0.063589 38.8733 0.00515913 38.0364C0.775648 28.6463 8.80136 21.2905 18.2769 21.2905C20.9672 21.2905 23.5608 21.8578 25.9843 22.977C26.7497 23.3303 27.0823 24.2347 26.7273 24.9966C26.3724 25.7585 25.4649 26.089 24.6985 25.7361C22.6803 24.8044 20.5201 24.332 18.2769 24.332C10.3805 24.332 3.6921 30.4606 3.05096 38.2838C2.98577 39.0791 2.31713 39.6808 1.52933 39.6808Z" fill="#00153B"/>
<path d="M34.306 44.0002C34.169 44.0002 34.0325 43.9819 33.8996 43.9454C27.4032 42.1606 23.9566 38.8677 23.6531 34.1585C23.649 34.0946 23.6464 34.0394 23.6424 33.9948C23.622 33.8954 23.6118 33.7945 23.6118 33.6931V23.3602C23.6118 22.9152 23.8079 22.4924 24.1481 22.2035C24.4882 21.9145 24.9384 21.7888 25.3799 21.8583C31 22.7499 32.8358 18.909 32.9111 18.7448C33.1622 18.1994 33.728 17.8471 34.3177 17.8506C34.9166 17.8562 35.4589 18.2029 35.7023 18.7468C35.7889 18.9344 37.6278 22.7464 43.2325 21.8588C43.673 21.7883 44.1237 21.9145 44.4644 22.204C44.8046 22.4929 45.0006 22.9157 45.0006 23.3607V33.6937C45.0006 33.795 44.9905 33.8959 44.9701 33.9953C44.9655 34.0399 44.963 34.0951 44.9594 34.159C44.6559 38.8687 41.2093 42.1611 34.7129 43.946C34.5794 43.9819 34.4425 44.0002 34.306 44.0002ZM26.6673 33.5619C26.6846 33.6901 26.6933 33.8214 26.7024 33.9643C26.7793 35.1632 27.0115 38.7678 34.306 40.8984C41.5999 38.7678 41.8321 35.1632 41.9095 33.9643C41.9192 33.8214 41.9273 33.6901 41.9447 33.5619V25.028C38.302 25.1192 35.794 23.6071 34.306 22.022C32.818 23.6071 30.3059 25.1192 26.6673 25.028V33.5619ZM44.963 34.0242C44.9584 34.0449 44.9528 34.0657 44.9477 34.0865C44.9528 34.0688 44.9584 34.048 44.963 34.0242ZM23.6485 34.0242C23.6536 34.0475 23.6592 34.0683 23.6638 34.0865C23.6582 34.0657 23.6531 34.0449 23.6485 34.0242Z" fill="#074AFF"/>
<path d="M34.0142 35.7688C33.6689 35.7688 33.3222 35.6527 33.0365 35.4155L29.9 32.8094C29.2523 32.2711 29.1652 31.312 29.706 30.6672C30.2463 30.023 31.2098 29.9358 31.8576 30.4741L33.8304 32.1129L37.0346 28.3486C37.58 27.7089 38.5445 27.6278 39.1882 28.1717C39.8318 28.7146 39.9118 29.6742 39.3664 30.3149L35.1814 35.2305C34.8789 35.5863 34.4481 35.7688 34.0142 35.7688Z" fill="#074AFF"/>
</g>
<defs>
<clipPath id="clip0_1526_1374">
<rect width="45" height="44" fill="white"/>
</clipPath>
</defs>
</svg>
