<svg width="48" height="45" viewBox="0 0 48 45" fill="none" xmlns="http://www.w3.org/2000/svg">
<g clip-path="url(#clip0_1791_1417)">
<path d="M34.452 22.587C33.5448 22.587 32.8125 21.8587 32.8125 20.9565V1.63043C32.8125 0.728261 33.5448 0 34.452 0C35.3592 0 36.0916 0.728261 36.0916 1.63043V20.9565C36.0916 21.8587 35.3592 22.587 34.452 22.587Z" fill="#00153B"/>
<path d="M27.3091 39.1304H6.27394C2.8965 39.1304 0.136628 36.3967 0.125697 33.038L0 1.63587C0 1.20109 0.169418 0.788043 0.480929 0.478261C0.786975 0.168478 1.20779 0 1.63953 0H34.452C35.3592 0 36.0915 0.728261 36.0915 1.63043C36.0915 2.53261 35.3592 3.26087 34.452 3.26087H3.28453L3.40476 33.0272C3.41022 34.5924 4.69999 35.8696 6.27394 35.8696H27.3091C28.2163 35.8696 28.9487 36.5978 28.9487 37.5C28.9487 38.4022 28.2163 39.1304 27.3091 39.1304Z" fill="#00153B"/>
<path fill-rule="evenodd" clip-rule="evenodd" d="M18.3567 11.0436C16.3495 11.0436 14.7224 12.6617 14.7224 14.6577C14.7224 16.6537 16.3495 18.2718 18.3567 18.2718C20.3639 18.2718 21.991 16.6537 21.991 14.6577C21.991 12.6617 20.3639 11.0436 18.3567 11.0436ZM11.4434 14.6577C11.4434 10.8608 14.5386 7.78271 18.3567 7.78271C22.1749 7.78271 25.2701 10.8608 25.2701 14.6577C25.2701 18.4547 22.1749 21.5327 18.3567 21.5327C14.5386 21.5327 11.4434 18.4547 11.4434 14.6577Z" fill="#00153B"/>
<path fill-rule="evenodd" clip-rule="evenodd" d="M18.2751 21.5328C14.5462 21.5328 11.5203 24.542 11.5203 28.2502C11.5203 29.1507 10.7862 29.8807 9.88074 29.8807C8.97525 29.8807 8.24121 29.1507 8.24121 28.2502C8.24121 22.7411 12.7352 18.272 18.2751 18.272C23.815 18.272 28.3091 22.7411 28.3091 28.2502C28.3091 29.1507 27.575 29.8807 26.6695 29.8807C25.7641 29.8807 25.03 29.1507 25.03 28.2502C25.03 24.542 22.0041 21.5328 18.2751 21.5328Z" fill="#00153B"/>
<path d="M36.5236 44.9999C36.376 44.9999 36.2285 44.9782 36.0864 44.9401C29.1129 43.0271 25.413 39.4945 25.0906 34.4455C25.0906 34.3749 25.0851 34.3205 25.0797 34.2716C25.0578 34.1629 25.0469 34.0597 25.0469 33.9455V22.8695C25.0469 22.3912 25.2545 21.9401 25.6207 21.6303C25.9869 21.3205 26.4678 21.1901 26.9433 21.2608C32.9767 22.2173 34.9442 18.0977 35.0261 17.9238C35.2939 17.3369 35.9006 16.9836 36.5345 16.9673C37.1794 16.9727 37.7587 17.3423 38.021 17.9292C38.1139 18.1303 40.0923 22.2173 46.1039 21.2662C46.5739 21.1955 47.0603 21.326 47.4265 21.6358C47.7926 21.9455 48.0003 22.3966 48.0003 22.8749V33.951C48.0003 34.0597 47.9894 34.1684 47.9675 34.2771C47.9675 34.326 47.9621 34.3858 47.9566 34.451C47.6287 39.4999 43.9288 43.0325 36.9608 44.9455C36.8187 44.9836 36.6711 45.0053 36.5236 45.0053V44.9999ZM28.3259 33.8097C28.3423 33.9455 28.3533 34.0869 28.3642 34.239C28.4462 35.5216 28.6976 39.3912 36.5236 41.6738C44.3496 39.3912 44.601 35.5271 44.683 34.239C44.6939 34.0869 44.7048 33.9455 44.7212 33.8097V24.6575C40.8192 24.7716 38.1194 23.1358 36.5236 21.4347C34.9278 23.1358 32.2335 24.7553 28.3259 24.6575V33.8097ZM47.9566 34.3042C47.9566 34.3042 47.9457 34.3477 47.9402 34.3695C47.9402 34.3477 47.9511 34.326 47.9566 34.3042ZM25.0851 34.3042C25.0851 34.3042 25.0961 34.3532 25.1015 34.3695C25.0961 34.3477 25.0906 34.326 25.0851 34.3042Z" fill="#074AFF"/>
<path d="M36.2069 36.1738C35.8353 36.1738 35.4637 36.0488 35.1576 35.7934L31.7911 32.9999C31.097 32.4238 31.0041 31.3967 31.5834 30.701C32.1627 30.0054 33.1956 29.9184 33.8952 30.4945L36.0102 32.2499L39.4477 28.2119C40.0325 27.5271 41.0654 27.4401 41.7595 28.0217C42.4481 28.6032 42.5355 29.6358 41.9507 30.3206L37.4584 35.5923C37.136 35.9727 36.6715 36.1684 36.2069 36.1684V36.1738Z" fill="#074AFF"/>
</g>
<defs>
<clipPath id="clip0_1791_1417">
<rect width="48" height="45" fill="white"/>
</clipPath>
</defs>
</svg>
