<svg width="48" height="50" viewBox="0 0 48 50" fill="none" xmlns="http://www.w3.org/2000/svg">
<g clip-path="url(#clip0_1789_1355)">
<path d="M34.4531 27.407C33.5475 27.407 32.8135 26.6713 32.8135 25.7636V11.842C32.8135 10.9344 33.5475 10.1987 34.4531 10.1987C35.3587 10.1987 36.0927 10.9344 36.0927 11.842V25.7636C36.0927 26.6713 35.3587 27.407 34.4531 27.407Z" fill="#00153B"/>
<path d="M27.3087 44.0841H6.2726C2.89556 44.0841 0.137192 41.3304 0.124075 37.9457L1.1605e-05 6.29442C-0.001628 5.8573 0.170531 5.43825 0.47823 5.12821C0.785929 4.81817 1.20348 4.64453 1.63962 4.64453H27.095C28.0007 4.64453 28.7346 5.38019 28.7346 6.28784C28.7346 7.1955 28.0007 7.93116 27.095 7.93116H3.28578L3.40329 37.9331C3.4093 39.5129 4.69694 40.7974 6.2726 40.7974H27.3093C28.2149 40.7974 28.9489 41.5331 28.9489 42.4407C28.9489 43.3484 28.2143 44.0841 27.3087 44.0841Z" fill="#00153B"/>
<path d="M36.5226 50C36.3756 50 36.2291 49.9803 36.0865 49.9408C29.1143 48.0121 25.4148 44.4538 25.0902 39.3645C25.0858 39.2955 25.0831 39.2363 25.0787 39.1881C25.0568 39.0807 25.0459 38.9717 25.0459 38.8622V27.6964C25.0459 27.2155 25.2563 26.7586 25.6214 26.4464C25.9865 26.1347 26.4685 26.0005 26.9435 26.0734C32.9772 27.038 34.9447 22.8864 35.0256 22.7089C35.2951 22.1195 35.8979 21.7618 36.5352 21.7427C37.1779 21.7487 37.7605 22.1228 38.0212 22.7106C38.1136 22.9122 40.0909 27.032 46.1034 26.0734C46.5761 25.9994 47.0603 26.1336 47.4254 26.4464C47.7905 26.7592 48.0009 27.2155 48.0009 27.6964V38.8627C48.0009 38.9723 47.99 39.0813 47.9681 39.1886C47.9638 39.2374 47.9605 39.2965 47.9561 39.3656C47.6304 44.4544 43.9303 48.0121 36.9587 49.9408C36.8161 49.9803 36.6691 50 36.5226 50ZM28.3246 38.7208C28.3437 38.86 28.3524 39.0018 28.3623 39.1558C28.4448 40.4507 28.694 44.3465 36.5226 46.6487C44.3512 44.3465 44.6004 40.4518 44.6829 39.1558C44.6927 39.0018 44.702 38.86 44.7206 38.7208V29.4986C40.8211 29.6131 38.119 27.9632 36.5226 26.2508C34.9262 27.9632 32.2317 29.5955 28.3246 29.4986V38.7208ZM47.9605 39.2204C47.9556 39.2434 47.9501 39.2659 47.9441 39.2883C47.949 39.2686 47.9556 39.2456 47.9605 39.2204ZM25.0847 39.2204C25.0902 39.2456 25.0962 39.2681 25.1011 39.2872C25.0951 39.2653 25.0896 39.2429 25.0847 39.2204Z" fill="#074AFF"/>
<path d="M36.2097 41.106C35.8392 41.106 35.4664 40.9806 35.1598 40.7242L31.7937 37.9076C31.0991 37.3258 31.0056 36.29 31.586 35.5927C32.1665 34.8954 33.2005 34.8034 33.8957 35.3845L36.0124 37.1549L39.4518 33.0872C40.0371 32.3943 41.0712 32.3088 41.7625 32.8955C42.4533 33.4821 42.5386 34.5196 41.9533 35.212L37.4618 40.5243C37.1372 40.9088 36.6748 41.106 36.2097 41.106Z" fill="#074AFF"/>
<path d="M11.3945 30.3997C10.9627 30.3997 10.5446 30.2287 10.2353 29.9182C9.86689 29.549 9.69528 29.0258 9.77343 28.5098L10.8807 21.2026C10.9332 20.8558 11.095 20.5348 11.3425 20.2872L31.1036 0.481491C31.7436 -0.160497 32.782 -0.160497 33.422 0.481491L39.6055 6.67843C39.9132 6.98627 40.0859 7.40422 40.0859 7.84025C40.0859 8.27627 39.9132 8.69422 39.6055 9.00207L19.8444 28.8084C19.5974 29.0565 19.2771 29.2187 18.9317 29.2712L11.6409 30.381C11.5584 30.3936 11.4759 30.3997 11.3945 30.3997ZM14.0419 22.2296L13.35 26.7964L17.9064 26.1024L36.1274 7.84025L32.2628 3.96696L14.0419 22.2296Z" fill="#00153B"/>
</g>
<defs>
<clipPath id="clip0_1789_1355">
<rect width="48" height="50" fill="white"/>
</clipPath>
</defs>
</svg>
